<?xml version="1.0" encoding="UTF-8" standalone="no"?>
<!DOCTYPE svg PUBLIC "-//W3C//DTD SVG 1.1//EN"
 "http://www.w3.org/Graphics/SVG/1.1/DTD/svg11.dtd">
<!-- Generated by graphviz version 2.38.0 (20140413.2041)
 -->
<!-- Title: G Pages: 1 -->
<svg width="698pt" height="636pt"
 viewBox="0.00 0.00 698.05 636.00" xmlns="http://www.w3.org/2000/svg" xmlns:xlink="http://www.w3.org/1999/xlink">
<g id="graph0" class="graph" transform="scale(1 1) rotate(0) translate(4 632)">
<title>G</title>
<polygon fill="white" stroke="none" points="-4,4 -4,-632 694.046,-632 694.046,4 -4,4"/>
<g id="clust1" class="cluster"><title>cluster_Global</title>
<path fill="none" stroke="gray" d="M20,-44C20,-44 670.046,-44 670.046,-44 676.046,-44 682.046,-50 682.046,-56 682.046,-56 682.046,-608 682.046,-608 682.046,-614 676.046,-620 670.046,-620 670.046,-620 20,-620 20,-620 14,-620 8,-614 8,-608 8,-608 8,-56 8,-56 8,-50 14,-44 20,-44"/>
<text text-anchor="middle" x="345.023" y="-607.2" font-family="Times,serif" font-size="11.00" fill="gray">Global</text>
</g>
<g id="clust2" class="cluster"><title>cluster_\rosette</title>
<path fill="none" stroke="gray" d="M28,-52C28,-52 662.046,-52 662.046,-52 668.046,-52 674.046,-58 674.046,-64 674.046,-64 674.046,-580 674.046,-580 674.046,-586 668.046,-592 662.046,-592 662.046,-592 28,-592 28,-592 22,-592 16,-586 16,-580 16,-580 16,-64 16,-64 16,-58 22,-52 28,-52"/>
<text text-anchor="middle" x="345.023" y="-579.2" font-family="Times,serif" font-size="11.00" fill="gray">rosette</text>
</g>
<g id="clust3" class="cluster"><title>cluster_\rosette\api</title>
<path fill="none" stroke="gray" d="M36,-60C36,-60 654.046,-60 654.046,-60 660.046,-60 666.046,-66 666.046,-72 666.046,-72 666.046,-552 666.046,-552 666.046,-558 660.046,-564 654.046,-564 654.046,-564 36,-564 36,-564 30,-564 24,-558 24,-552 24,-552 24,-72 24,-72 24,-66 30,-60 36,-60"/>
<text text-anchor="middle" x="345.023" y="-551.2" font-family="Times,serif" font-size="11.00" fill="gray">api</text>
</g>
<!-- \\rosette\\api\\Api -->
<g id="node1" class="node"><title>\\rosette\\api\\Api</title>
<polygon fill="none" stroke="black" points="575.546,-536 521.546,-536 521.546,-500 575.546,-500 575.546,-536"/>
<text text-anchor="middle" x="548.546" y="-515.2" font-family="Courier,monospace" font-size="11.00">Api</text>
</g>
<!-- \\rosette\\api\\DocumentParameters -->
<g id="node2" class="node"><title>\\rosette\\api\\DocumentParameters</title>
<polygon fill="none" stroke="black" points="624.546,-428 472.546,-428 472.546,-392 624.546,-392 624.546,-428"/>
<text text-anchor="middle" x="548.546" y="-407.2" font-family="Courier,monospace" font-size="11.00">DocumentParameters</text>
</g>
<!-- \\rosette\\api\\RosetteParamsSetBase -->
<g id="node11" class="node"><title>\\rosette\\api\\RosetteParamsSetBase</title>
<polygon fill="none" stroke="black" points="367.046,-212 200.046,-212 200.046,-176 367.046,-176 367.046,-212"/>
<text text-anchor="start" x="245.546" y="-197.2" font-family="Courier,monospace" font-size="11.00">«abstract»</text>
<text text-anchor="start" x="208.046" y="-185.2" font-family="Courier,monospace" font-size="11.00">RosetteParamsSetBase</text>
</g>
<!-- \\rosette\\api\\DocumentParameters&#45;&gt;\\rosette\\api\\RosetteParamsSetBase -->
<g id="edge1" class="edge"><title>\\rosette\\api\\DocumentParameters&#45;&gt;\\rosette\\api\\RosetteParamsSetBase</title>
<path fill="none" stroke="black" d="M472.286,-397.99C460.631,-394.266 449.13,-389.389 439.046,-383 373.448,-341.443 322.605,-262.554 299,-221.061"/>
<polygon fill="none" stroke="black" points="301.916,-219.105 293.985,-212.08 295.805,-222.518 301.916,-219.105"/>
</g>
<!-- \\rosette\\api\\NameTranslationParameters -->
<g id="node3" class="node"><title>\\rosette\\api\\NameTranslationParameters</title>
<polygon fill="none" stroke="black" points="650.546,-374 446.546,-374 446.546,-338 650.546,-338 650.546,-374"/>
<text text-anchor="middle" x="548.546" y="-353.2" font-family="Courier,monospace" font-size="11.00">NameTranslationParameters</text>
</g>
<!-- \\rosette\\api\\NameTranslationParameters&#45;&gt;\\rosette\\api\\RosetteParamsSetBase -->
<g id="edge2" class="edge"><title>\\rosette\\api\\NameTranslationParameters&#45;&gt;\\rosette\\api\\RosetteParamsSetBase</title>
<path fill="none" stroke="black" d="M459.451,-337.929C452.39,-335.329 445.499,-332.368 439.046,-329 385.418,-301.012 334.951,-250.748 307.05,-220.079"/>
<polygon fill="none" stroke="black" points="309.407,-217.465 300.125,-212.357 304.196,-222.138 309.407,-217.465"/>
</g>
<!-- \\rosette\\api\\RosetteException -->
<g id="node4" class="node"><title>\\rosette\\api\\RosetteException</title>
<polygon fill="none" stroke="black" points="617.046,-482 480.046,-482 480.046,-446 617.046,-446 617.046,-482"/>
<text text-anchor="middle" x="548.546" y="-461.2" font-family="Courier,monospace" font-size="11.00">RosetteException</text>
</g>
<!-- \\rosette\\api\\CustomException -->
<g id="node9" class="node"><title>\\rosette\\api\\CustomException</title>
<polygon fill="none" stroke="black" points="348.046,-374 219.046,-374 219.046,-338 348.046,-338 348.046,-374"/>
<text text-anchor="middle" x="283.546" y="-353.2" font-family="Courier,monospace" font-size="11.00">CustomException</text>
</g>
<!-- \\rosette\\api\\RosetteException&#45;&gt;\\rosette\\api\\CustomException -->
<g id="edge3" class="edge"><title>\\rosette\\api\\RosetteException&#45;&gt;\\rosette\\api\\CustomException</title>
<path fill="none" stroke="black" d="M479.924,-449.829C466.208,-446.217 452.018,-441.933 439.046,-437 397.564,-421.226 352.95,-396.971 322.38,-379.112"/>
<polygon fill="none" stroke="black" points="324.146,-376.09 313.755,-374.025 320.59,-382.12 324.146,-376.09"/>
</g>
<!-- \\rosette\\api\\RosetteRequest -->
<g id="node5" class="node"><title>\\rosette\\api\\RosetteRequest</title>
<polygon fill="none" stroke="black" points="609.546,-320 487.546,-320 487.546,-284 609.546,-284 609.546,-320"/>
<text text-anchor="middle" x="548.546" y="-299.2" font-family="Courier,monospace" font-size="11.00">RosetteRequest</text>
</g>
<!-- \\rosette\\api\\RosetteConstants -->
<g id="node6" class="node"><title>\\rosette\\api\\RosetteConstants</title>
<polygon fill="none" stroke="black" points="617.046,-266 480.046,-266 480.046,-230 617.046,-230 617.046,-266"/>
<text text-anchor="middle" x="548.546" y="-245.2" font-family="Courier,monospace" font-size="11.00">RosetteConstants</text>
</g>
<!-- \\rosette\\api\\Name -->
<g id="node7" class="node"><title>\\rosette\\api\\Name</title>
<polygon fill="none" stroke="black" points="575.546,-212 521.546,-212 521.546,-176 575.546,-176 575.546,-212"/>
<text text-anchor="middle" x="548.546" y="-191.2" font-family="Courier,monospace" font-size="11.00">Name</text>
</g>
<!-- \\rosette\\api\\Name&#45;&gt;\\rosette\\api\\RosetteParamsSetBase -->
<g id="edge4" class="edge"><title>\\rosette\\api\\Name&#45;&gt;\\rosette\\api\\RosetteParamsSetBase</title>
<path fill="none" stroke="black" d="M521.367,-194C487.931,-194 428.278,-194 377.209,-194"/>
<polygon fill="none" stroke="black" points="377.121,-190.5 367.12,-194 377.12,-197.5 377.121,-190.5"/>
</g>
<!-- \\rosette\\api\\NameSimilarityParameters -->
<g id="node8" class="node"><title>\\rosette\\api\\NameSimilarityParameters</title>
<polygon fill="none" stroke="black" points="647.046,-158 450.046,-158 450.046,-122 647.046,-122 647.046,-158"/>
<text text-anchor="middle" x="548.546" y="-137.2" font-family="Courier,monospace" font-size="11.00">NameSimilarityParameters</text>
</g>
<!-- \\rosette\\api\\NameSimilarityParameters&#45;&gt;\\rosette\\api\\RosetteParamsSetBase -->
<g id="edge5" class="edge"><title>\\rosette\\api\\NameSimilarityParameters&#45;&gt;\\rosette\\api\\RosetteParamsSetBase</title>
<path fill="none" stroke="black" d="M459.605,-158.056C433.122,-163.494 403.983,-169.477 377.204,-174.975"/>
<polygon fill="none" stroke="black" points="376.159,-171.617 367.067,-177.056 377.567,-178.474 376.159,-171.617"/>
</g>
<!-- \\rosette\\api\\IException -->
<g id="node12" class="node"><title>\\rosette\\api\\IException</title>
<polygon fill="none" stroke="black" points="124,-374 32,-374 32,-338 124,-338 124,-374"/>
<text text-anchor="middle" x="78" y="-353.2" font-family="Courier,monospace" font-size="11.00">IException</text>
</g>
<!-- \\rosette\\api\\CustomException&#45;&gt;\\rosette\\api\\IException -->
<g id="edge7" class="edge"><title>\\rosette\\api\\CustomException&#45;&gt;\\rosette\\api\\IException</title>
<path fill="none" stroke="black" stroke-dasharray="1,5" d="M218.98,-356C191.794,-356 160.353,-356 134.165,-356"/>
<polygon fill="none" stroke="black" points="134.035,-352.5 124.035,-356 134.035,-359.5 134.035,-352.5"/>
</g>
<!-- \\Exception -->
<g id="node13" class="node"><title>\\Exception</title>
<ellipse fill="none" stroke="black" cx="78" cy="-18" rx="50.0912" ry="18"/>
<text text-anchor="middle" x="78" y="-14.3" font-family="Times,serif" font-size="14.00" fill="gray">xception</text>
</g>
<!-- \\rosette\\api\\CustomException&#45;&gt;\\Exception -->
<g id="edge6" class="edge"><title>\\rosette\\api\\CustomException&#45;&gt;\\Exception</title>
<path fill="none" stroke="black" d="M270.239,-337.686C253.34,-312.151 222.496,-264.123 200.046,-221 163.098,-150.031 177.199,-119.133 128.046,-56 123.451,-50.0983 117.74,-44.6025 111.857,-39.7265"/>
<polygon fill="none" stroke="black" points="113.861,-36.8514 103.817,-33.4818 109.568,-42.3799 113.861,-36.8514"/>
</g>
<!-- \\rosette\\api\\NameDeduplicationParameters -->
<g id="node10" class="node"><title>\\rosette\\api\\NameDeduplicationParameters</title>
<polygon fill="none" stroke="black" points="658.046,-104 439.046,-104 439.046,-68 658.046,-68 658.046,-104"/>
<text text-anchor="middle" x="548.546" y="-83.2" font-family="Courier,monospace" font-size="11.00">NameDeduplicationParameters</text>
</g>
<!-- \\rosette\\api\\NameDeduplicationParameters&#45;&gt;\\rosette\\api\\RosetteParamsSetBase -->
<g id="edge8" class="edge"><title>\\rosette\\api\\NameDeduplicationParameters&#45;&gt;\\rosette\\api\\RosetteParamsSetBase</title>
<path fill="none" stroke="black" d="M466.016,-104.035C456.819,-106.732 447.664,-109.723 439.046,-113 397.564,-128.774 352.95,-153.029 322.38,-170.888"/>
<polygon fill="none" stroke="black" points="320.59,-167.88 313.755,-175.975 324.146,-173.91 320.59,-167.88"/>
</g>
</g>
</svg>
