<?xml version="1.0" encoding="UTF-8" standalone="no"?>
<!DOCTYPE svg PUBLIC "-//W3C//DTD SVG 1.1//EN"
 "http://www.w3.org/Graphics/SVG/1.1/DTD/svg11.dtd">
<!-- Generated by graphviz version 2.38.0 (20140413.2041)
 -->
<!-- Title: G Pages: 1 -->
<svg width="646pt" height="582pt"
 viewBox="0.00 0.00 645.70 582.00" xmlns="http://www.w3.org/2000/svg" xmlns:xlink="http://www.w3.org/1999/xlink">
<g id="graph0" class="graph" transform="scale(1 1) rotate(0) translate(4 578)">
<title>G</title>
<polygon fill="white" stroke="none" points="-4,4 -4,-578 641.696,-578 641.696,4 -4,4"/>
<g id="clust1" class="cluster"><title>cluster_Global</title>
<path fill="none" stroke="gray" d="M20,-44C20,-44 617.696,-44 617.696,-44 623.696,-44 629.696,-50 629.696,-56 629.696,-56 629.696,-554 629.696,-554 629.696,-560 623.696,-566 617.696,-566 617.696,-566 20,-566 20,-566 14,-566 8,-560 8,-554 8,-554 8,-56 8,-56 8,-50 14,-44 20,-44"/>
<text text-anchor="middle" x="318.848" y="-553.2" font-family="Times,serif" font-size="11.00" fill="gray">Global</text>
</g>
<g id="clust2" class="cluster"><title>cluster_\rosette</title>
<path fill="none" stroke="gray" d="M28,-52C28,-52 609.696,-52 609.696,-52 615.696,-52 621.696,-58 621.696,-64 621.696,-64 621.696,-526 621.696,-526 621.696,-532 615.696,-538 609.696,-538 609.696,-538 28,-538 28,-538 22,-538 16,-532 16,-526 16,-526 16,-64 16,-64 16,-58 22,-52 28,-52"/>
<text text-anchor="middle" x="318.848" y="-525.2" font-family="Times,serif" font-size="11.00" fill="gray">rosette</text>
</g>
<g id="clust3" class="cluster"><title>cluster_\rosette\api</title>
<path fill="none" stroke="gray" d="M36,-60C36,-60 601.696,-60 601.696,-60 607.696,-60 613.696,-66 613.696,-72 613.696,-72 613.696,-498 613.696,-498 613.696,-504 607.696,-510 601.696,-510 601.696,-510 36,-510 36,-510 30,-510 24,-504 24,-498 24,-498 24,-72 24,-72 24,-66 30,-60 36,-60"/>
<text text-anchor="middle" x="318.848" y="-497.2" font-family="Times,serif" font-size="11.00" fill="gray">api</text>
</g>
<!-- \\rosette\\api\\DocumentParameters -->
<g id="node1" class="node"><title>\\rosette\\api\\DocumentParameters</title>
<polygon fill="none" stroke="black" points="582.196,-482 444.196,-482 444.196,-446 582.196,-446 582.196,-482"/>
<text text-anchor="middle" x="513.196" y="-461.2" font-family="Courier,monospace" font-size="11.00">DocumentParameters</text>
</g>
<!-- \\rosette\\api\\RosetteParamsSetBase -->
<g id="node8" class="node"><title>\\rosette\\api\\RosetteParamsSetBase</title>
<polygon fill="none" stroke="black" points="348.696,-374 196.696,-374 196.696,-338 348.696,-338 348.696,-374"/>
<text text-anchor="start" x="238.696" y="-359.2" font-family="Courier,monospace" font-size="11.00">«abstract»</text>
<text text-anchor="start" x="204.696" y="-347.2" font-family="Courier,monospace" font-size="11.00">RosetteParamsSetBase</text>
</g>
<!-- \\rosette\\api\\DocumentParameters&#45;&gt;\\rosette\\api\\RosetteParamsSetBase -->
<g id="edge1" class="edge"><title>\\rosette\\api\\DocumentParameters&#45;&gt;\\rosette\\api\\RosetteParamsSetBase</title>
<path fill="none" stroke="black" d="M444.65,-445.882C436.486,-443.162 428.338,-440.189 420.696,-437 381.702,-420.73 339.721,-396.905 310.646,-379.303"/>
<polygon fill="none" stroke="black" points="312.414,-376.281 302.055,-374.055 308.765,-382.255 312.414,-376.281"/>
</g>
<!-- \\rosette\\api\\NameSimilarityParameters -->
<g id="node2" class="node"><title>\\rosette\\api\\NameSimilarityParameters</title>
<polygon fill="none" stroke="black" points="602.696,-428 423.696,-428 423.696,-392 602.696,-392 602.696,-428"/>
<text text-anchor="middle" x="513.196" y="-407.2" font-family="Courier,monospace" font-size="11.00">NameSimilarityParameters</text>
</g>
<!-- \\rosette\\api\\NameSimilarityParameters&#45;&gt;\\rosette\\api\\RosetteParamsSetBase -->
<g id="edge2" class="edge"><title>\\rosette\\api\\NameSimilarityParameters&#45;&gt;\\rosette\\api\\RosetteParamsSetBase</title>
<path fill="none" stroke="black" d="M432.447,-391.944C408.762,-386.581 382.734,-380.688 358.726,-375.252"/>
<polygon fill="none" stroke="black" points="359.456,-371.829 348.93,-373.034 357.91,-378.656 359.456,-371.829"/>
</g>
<!-- \\rosette\\api\\RosetteRequest -->
<g id="node3" class="node"><title>\\rosette\\api\\RosetteRequest</title>
<polygon fill="none" stroke="black" points="568.696,-374 457.696,-374 457.696,-338 568.696,-338 568.696,-374"/>
<text text-anchor="middle" x="513.196" y="-353.2" font-family="Courier,monospace" font-size="11.00">RosetteRequest</text>
</g>
<!-- \\rosette\\api\\Name -->
<g id="node4" class="node"><title>\\rosette\\api\\Name</title>
<polygon fill="none" stroke="black" points="540.196,-320 486.196,-320 486.196,-284 540.196,-284 540.196,-320"/>
<text text-anchor="middle" x="513.196" y="-299.2" font-family="Courier,monospace" font-size="11.00">Name</text>
</g>
<!-- \\rosette\\api\\Name&#45;&gt;\\rosette\\api\\RosetteParamsSetBase -->
<g id="edge3" class="edge"><title>\\rosette\\api\\Name&#45;&gt;\\rosette\\api\\RosetteParamsSetBase</title>
<path fill="none" stroke="black" d="M485.761,-307.985C455.261,-314.891 403.561,-326.596 358.846,-336.721"/>
<polygon fill="none" stroke="black" points="357.813,-333.366 348.832,-338.988 359.358,-340.193 357.813,-333.366"/>
</g>
<!-- \\rosette\\api\\CustomException -->
<g id="node5" class="node"><title>\\rosette\\api\\CustomException</title>
<polygon fill="none" stroke="black" points="331.696,-131 213.696,-131 213.696,-95 331.696,-95 331.696,-131"/>
<text text-anchor="middle" x="272.696" y="-110.2" font-family="Courier,monospace" font-size="11.00">CustomException</text>
</g>
<!-- \\rosette\\api\\IException -->
<g id="node11" class="node"><title>\\rosette\\api\\IException</title>
<polygon fill="none" stroke="black" points="116,-131 32,-131 32,-95 116,-95 116,-131"/>
<text text-anchor="middle" x="74" y="-110.2" font-family="Courier,monospace" font-size="11.00">IException</text>
</g>
<!-- \\rosette\\api\\CustomException&#45;&gt;\\rosette\\api\\IException -->
<g id="edge5" class="edge"><title>\\rosette\\api\\CustomException&#45;&gt;\\rosette\\api\\IException</title>
<path fill="none" stroke="black" stroke-dasharray="1,5" d="M213.479,-113C185.877,-113 153.184,-113 126.497,-113"/>
<polygon fill="none" stroke="black" points="126.213,-109.5 116.213,-113 126.213,-116.5 126.213,-109.5"/>
</g>
<!-- \\Exception -->
<g id="node12" class="node"><title>\\Exception</title>
<ellipse fill="none" stroke="black" cx="74" cy="-18" rx="50.8918" ry="18"/>
<text text-anchor="middle" x="74" y="-14.3" font-family="Times,serif" font-size="14.00" fill="gray">xception</text>
</g>
<!-- \\rosette\\api\\CustomException&#45;&gt;\\Exception -->
<g id="edge4" class="edge"><title>\\rosette\\api\\CustomException&#45;&gt;\\Exception</title>
<path fill="none" stroke="black" d="M234.236,-94.9076C199.9,-78.3244 149.242,-53.8572 114.329,-36.9953"/>
<polygon fill="none" stroke="black" points="115.453,-33.6514 104.926,-32.4539 112.409,-39.9547 115.453,-33.6514"/>
</g>
<!-- \\rosette\\api\\NameTranslationParameters -->
<g id="node6" class="node"><title>\\rosette\\api\\NameTranslationParameters</title>
<polygon fill="none" stroke="black" points="605.696,-266 420.696,-266 420.696,-230 605.696,-230 605.696,-266"/>
<text text-anchor="middle" x="513.196" y="-245.2" font-family="Courier,monospace" font-size="11.00">NameTranslationParameters</text>
</g>
<!-- \\rosette\\api\\NameTranslationParameters&#45;&gt;\\rosette\\api\\RosetteParamsSetBase -->
<g id="edge6" class="edge"><title>\\rosette\\api\\NameTranslationParameters&#45;&gt;\\rosette\\api\\RosetteParamsSetBase</title>
<path fill="none" stroke="black" d="M444.65,-266.118C436.486,-268.838 428.338,-271.811 420.696,-275 381.702,-291.27 339.721,-315.095 310.646,-332.697"/>
<polygon fill="none" stroke="black" points="308.765,-329.745 302.055,-337.945 312.414,-335.719 308.765,-329.745"/>
</g>
<!-- \\rosette\\api\\Api -->
<g id="node7" class="node"><title>\\rosette\\api\\Api</title>
<polygon fill="none" stroke="black" points="540.196,-212 486.196,-212 486.196,-176 540.196,-176 540.196,-212"/>
<text text-anchor="middle" x="513.196" y="-191.2" font-family="Courier,monospace" font-size="11.00">Api</text>
</g>
<!-- \\rosette\\api\\RosetteException -->
<g id="node9" class="node"><title>\\rosette\\api\\RosetteException</title>
<polygon fill="none" stroke="black" points="575.696,-158 450.696,-158 450.696,-122 575.696,-122 575.696,-158"/>
<text text-anchor="middle" x="513.196" y="-137.2" font-family="Courier,monospace" font-size="11.00">RosetteException</text>
</g>
<!-- \\rosette\\api\\RosetteException&#45;&gt;\\rosette\\api\\CustomException -->
<g id="edge7" class="edge"><title>\\rosette\\api\\RosetteException&#45;&gt;\\rosette\\api\\CustomException</title>
<path fill="none" stroke="black" d="M450.466,-133.012C417.319,-129.259 376.376,-124.624 342.243,-120.76"/>
<polygon fill="none" stroke="black" points="342.215,-117.235 331.885,-119.587 341.428,-124.19 342.215,-117.235"/>
</g>
<!-- \\rosette\\api\\RosetteConstants -->
<g id="node10" class="node"><title>\\rosette\\api\\RosetteConstants</title>
<polygon fill="none" stroke="black" points="575.696,-104 450.696,-104 450.696,-68 575.696,-68 575.696,-104"/>
<text text-anchor="middle" x="513.196" y="-83.2" font-family="Courier,monospace" font-size="11.00">RosetteConstants</text>
</g>
</g>
</svg>
