<?xml version="1.0" encoding="UTF-8" standalone="no"?>
<!DOCTYPE svg PUBLIC "-//W3C//DTD SVG 1.1//EN"
 "http://www.w3.org/Graphics/SVG/1.1/DTD/svg11.dtd">
<!-- Generated by graphviz version 2.38.0 (20140413.2041)
 -->
<!-- Title: G Pages: 1 -->
<svg width="698pt" height="636pt"
 viewBox="0.00 0.00 698.05 636.00" xmlns="http://www.w3.org/2000/svg" xmlns:xlink="http://www.w3.org/1999/xlink">
<g id="graph0" class="graph" transform="scale(1 1) rotate(0) translate(4 632)">
<title>G</title>
<polygon fill="white" stroke="none" points="-4,4 -4,-632 694.046,-632 694.046,4 -4,4"/>
<g id="clust1" class="cluster"><title>cluster_Global</title>
<path fill="none" stroke="gray" d="M20,-44C20,-44 670.046,-44 670.046,-44 676.046,-44 682.046,-50 682.046,-56 682.046,-56 682.046,-608 682.046,-608 682.046,-614 676.046,-620 670.046,-620 670.046,-620 20,-620 20,-620 14,-620 8,-614 8,-608 8,-608 8,-56 8,-56 8,-50 14,-44 20,-44"/>
<text text-anchor="middle" x="345.023" y="-607.2" font-family="Times,serif" font-size="11.00" fill="gray">Global</text>
</g>
<g id="clust2" class="cluster"><title>cluster_\rosette</title>
<path fill="none" stroke="gray" d="M28,-52C28,-52 662.046,-52 662.046,-52 668.046,-52 674.046,-58 674.046,-64 674.046,-64 674.046,-580 674.046,-580 674.046,-586 668.046,-592 662.046,-592 662.046,-592 28,-592 28,-592 22,-592 16,-586 16,-580 16,-580 16,-64 16,-64 16,-58 22,-52 28,-52"/>
<text text-anchor="middle" x="345.023" y="-579.2" font-family="Times,serif" font-size="11.00" fill="gray">rosette</text>
</g>
<g id="clust3" class="cluster"><title>cluster_\rosette\api</title>
<path fill="none" stroke="gray" d="M36,-60C36,-60 654.046,-60 654.046,-60 660.046,-60 666.046,-66 666.046,-72 666.046,-72 666.046,-552 666.046,-552 666.046,-558 660.046,-564 654.046,-564 654.046,-564 36,-564 36,-564 30,-564 24,-558 24,-552 24,-552 24,-72 24,-72 24,-66 30,-60 36,-60"/>
<text text-anchor="middle" x="345.023" y="-551.2" font-family="Times,serif" font-size="11.00" fill="gray">api</text>
</g>
<!-- \\rosette\\api\\CustomException -->
<g id="node1" class="node"><title>\\rosette\\api\\CustomException</title>
<polygon fill="none" stroke="black" points="348.046,-455 219.046,-455 219.046,-419 348.046,-419 348.046,-455"/>
<text text-anchor="middle" x="283.546" y="-434.2" font-family="Courier,monospace" font-size="11.00">CustomException</text>
</g>
<!-- \\rosette\\api\\IException -->
<g id="node12" class="node"><title>\\rosette\\api\\IException</title>
<polygon fill="none" stroke="black" points="124,-455 32,-455 32,-419 124,-419 124,-455"/>
<text text-anchor="middle" x="78" y="-434.2" font-family="Courier,monospace" font-size="11.00">IException</text>
</g>
<!-- \\rosette\\api\\CustomException&#45;&gt;\\rosette\\api\\IException -->
<g id="edge2" class="edge"><title>\\rosette\\api\\CustomException&#45;&gt;\\rosette\\api\\IException</title>
<path fill="none" stroke="black" stroke-dasharray="1,5" d="M218.98,-437C191.794,-437 160.353,-437 134.165,-437"/>
<polygon fill="none" stroke="black" points="134.035,-433.5 124.035,-437 134.035,-440.5 134.035,-433.5"/>
</g>
<!-- \\Exception -->
<g id="node13" class="node"><title>\\Exception</title>
<ellipse fill="none" stroke="black" cx="78" cy="-18" rx="50.0912" ry="18"/>
<text text-anchor="middle" x="78" y="-14.3" font-family="Times,serif" font-size="14.00" fill="gray">xception</text>
</g>
<!-- \\rosette\\api\\CustomException&#45;&gt;\\Exception -->
<g id="edge1" class="edge"><title>\\rosette\\api\\CustomException&#45;&gt;\\Exception</title>
<path fill="none" stroke="black" d="M264.829,-418.647C246.128,-398.305 217.054,-363.757 200.046,-329 144.89,-216.29 197.31,-160.634 128.046,-56 123.999,-49.8867 118.637,-44.338 112.945,-39.4858"/>
<polygon fill="none" stroke="black" points="115.102,-36.7288 105.072,-33.3132 110.783,-42.2376 115.102,-36.7288"/>
</g>
<!-- \\rosette\\api\\RosetteException -->
<g id="node2" class="node"><title>\\rosette\\api\\RosetteException</title>
<polygon fill="none" stroke="black" points="617.046,-536 480.046,-536 480.046,-500 617.046,-500 617.046,-536"/>
<text text-anchor="middle" x="548.546" y="-515.2" font-family="Courier,monospace" font-size="11.00">RosetteException</text>
</g>
<!-- \\rosette\\api\\RosetteException&#45;&gt;\\rosette\\api\\CustomException -->
<g id="edge3" class="edge"><title>\\rosette\\api\\RosetteException&#45;&gt;\\rosette\\api\\CustomException</title>
<path fill="none" stroke="black" d="M479.855,-502.181C466.278,-498.72 452.159,-494.914 439.046,-491 406.634,-481.325 370.957,-468.972 342.061,-458.523"/>
<polygon fill="none" stroke="black" points="343.13,-455.187 332.536,-455.058 340.737,-461.766 343.13,-455.187"/>
</g>
<!-- \\rosette\\api\\RosetteParamsSetBase -->
<g id="node3" class="node"><title>\\rosette\\api\\RosetteParamsSetBase</title>
<polygon fill="none" stroke="black" points="367.046,-320 200.046,-320 200.046,-284 367.046,-284 367.046,-320"/>
<text text-anchor="start" x="245.546" y="-305.2" font-family="Courier,monospace" font-size="11.00">«abstract»</text>
<text text-anchor="start" x="208.046" y="-293.2" font-family="Courier,monospace" font-size="11.00">RosetteParamsSetBase</text>
</g>
<!-- \\rosette\\api\\NameDeduplicationParameters -->
<g id="node4" class="node"><title>\\rosette\\api\\NameDeduplicationParameters</title>
<polygon fill="none" stroke="black" points="658.046,-482 439.046,-482 439.046,-446 658.046,-446 658.046,-482"/>
<text text-anchor="middle" x="548.546" y="-461.2" font-family="Courier,monospace" font-size="11.00">NameDeduplicationParameters</text>
</g>
<!-- \\rosette\\api\\NameDeduplicationParameters&#45;&gt;\\rosette\\api\\RosetteParamsSetBase -->
<g id="edge4" class="edge"><title>\\rosette\\api\\NameDeduplicationParameters&#45;&gt;\\rosette\\api\\RosetteParamsSetBase</title>
<path fill="none" stroke="black" d="M459.451,-445.929C452.39,-443.329 445.499,-440.368 439.046,-437 385.418,-409.012 334.951,-358.748 307.05,-328.079"/>
<polygon fill="none" stroke="black" points="309.407,-325.465 300.125,-320.357 304.196,-330.138 309.407,-325.465"/>
</g>
<!-- \\rosette\\api\\NameTranslationParameters -->
<g id="node5" class="node"><title>\\rosette\\api\\NameTranslationParameters</title>
<polygon fill="none" stroke="black" points="650.546,-428 446.546,-428 446.546,-392 650.546,-392 650.546,-428"/>
<text text-anchor="middle" x="548.546" y="-407.2" font-family="Courier,monospace" font-size="11.00">NameTranslationParameters</text>
</g>
<!-- \\rosette\\api\\NameTranslationParameters&#45;&gt;\\rosette\\api\\RosetteParamsSetBase -->
<g id="edge5" class="edge"><title>\\rosette\\api\\NameTranslationParameters&#45;&gt;\\rosette\\api\\RosetteParamsSetBase</title>
<path fill="none" stroke="black" d="M466.016,-391.965C456.819,-389.268 447.664,-386.277 439.046,-383 397.564,-367.226 352.95,-342.971 322.38,-325.112"/>
<polygon fill="none" stroke="black" points="324.146,-322.09 313.755,-320.025 320.59,-328.12 324.146,-322.09"/>
</g>
<!-- \\rosette\\api\\RosetteConstants -->
<g id="node6" class="node"><title>\\rosette\\api\\RosetteConstants</title>
<polygon fill="none" stroke="black" points="617.046,-374 480.046,-374 480.046,-338 617.046,-338 617.046,-374"/>
<text text-anchor="middle" x="548.546" y="-353.2" font-family="Courier,monospace" font-size="11.00">RosetteConstants</text>
</g>
<!-- \\rosette\\api\\Name -->
<g id="node7" class="node"><title>\\rosette\\api\\Name</title>
<polygon fill="none" stroke="black" points="575.546,-320 521.546,-320 521.546,-284 575.546,-284 575.546,-320"/>
<text text-anchor="middle" x="548.546" y="-299.2" font-family="Courier,monospace" font-size="11.00">Name</text>
</g>
<!-- \\rosette\\api\\Name&#45;&gt;\\rosette\\api\\RosetteParamsSetBase -->
<g id="edge6" class="edge"><title>\\rosette\\api\\Name&#45;&gt;\\rosette\\api\\RosetteParamsSetBase</title>
<path fill="none" stroke="black" d="M521.367,-302C487.931,-302 428.278,-302 377.209,-302"/>
<polygon fill="none" stroke="black" points="377.121,-298.5 367.12,-302 377.12,-305.5 377.121,-298.5"/>
</g>
<!-- \\rosette\\api\\RosetteRequest -->
<g id="node8" class="node"><title>\\rosette\\api\\RosetteRequest</title>
<polygon fill="none" stroke="black" points="609.546,-266 487.546,-266 487.546,-230 609.546,-230 609.546,-266"/>
<text text-anchor="middle" x="548.546" y="-245.2" font-family="Courier,monospace" font-size="11.00">RosetteRequest</text>
</g>
<!-- \\rosette\\api\\NameSimilarityParameters -->
<g id="node9" class="node"><title>\\rosette\\api\\NameSimilarityParameters</title>
<polygon fill="none" stroke="black" points="647.046,-212 450.046,-212 450.046,-176 647.046,-176 647.046,-212"/>
<text text-anchor="middle" x="548.546" y="-191.2" font-family="Courier,monospace" font-size="11.00">NameSimilarityParameters</text>
</g>
<!-- \\rosette\\api\\NameSimilarityParameters&#45;&gt;\\rosette\\api\\RosetteParamsSetBase -->
<g id="edge7" class="edge"><title>\\rosette\\api\\NameSimilarityParameters&#45;&gt;\\rosette\\api\\RosetteParamsSetBase</title>
<path fill="none" stroke="black" d="M466.016,-212.035C456.819,-214.732 447.664,-217.723 439.046,-221 397.564,-236.774 352.95,-261.029 322.38,-278.888"/>
<polygon fill="none" stroke="black" points="320.59,-275.88 313.755,-283.975 324.146,-281.91 320.59,-275.88"/>
</g>
<!-- \\rosette\\api\\Api -->
<g id="node10" class="node"><title>\\rosette\\api\\Api</title>
<polygon fill="none" stroke="black" points="575.546,-158 521.546,-158 521.546,-122 575.546,-122 575.546,-158"/>
<text text-anchor="middle" x="548.546" y="-137.2" font-family="Courier,monospace" font-size="11.00">Api</text>
</g>
<!-- \\rosette\\api\\DocumentParameters -->
<g id="node11" class="node"><title>\\rosette\\api\\DocumentParameters</title>
<polygon fill="none" stroke="black" points="624.546,-104 472.546,-104 472.546,-68 624.546,-68 624.546,-104"/>
<text text-anchor="middle" x="548.546" y="-83.2" font-family="Courier,monospace" font-size="11.00">DocumentParameters</text>
</g>
<!-- \\rosette\\api\\DocumentParameters&#45;&gt;\\rosette\\api\\RosetteParamsSetBase -->
<g id="edge8" class="edge"><title>\\rosette\\api\\DocumentParameters&#45;&gt;\\rosette\\api\\RosetteParamsSetBase</title>
<path fill="none" stroke="black" d="M472.286,-98.0105C460.631,-101.734 449.13,-106.611 439.046,-113 373.448,-154.557 322.605,-233.446 299,-274.939"/>
<polygon fill="none" stroke="black" points="295.805,-273.482 293.985,-283.92 301.916,-276.895 295.805,-273.482"/>
</g>
</g>
</svg>
