<?xml version="1.0" encoding="UTF-8" standalone="no"?>
<!DOCTYPE svg PUBLIC "-//W3C//DTD SVG 1.1//EN"
 "http://www.w3.org/Graphics/SVG/1.1/DTD/svg11.dtd">
<!-- Generated by graphviz version 2.36.0 (20140111.2315)
 -->
<!-- Title: G Pages: 1 -->
<svg width="657pt" height="582pt"
 viewBox="0.00 0.00 657.00 582.00" xmlns="http://www.w3.org/2000/svg" xmlns:xlink="http://www.w3.org/1999/xlink">
<g id="graph0" class="graph" transform="scale(1 1) rotate(0) translate(4 578)">
<title>G</title>
<polygon fill="white" stroke="none" points="-4,4 -4,-578 653,-578 653,4 -4,4"/>
<g id="clust1" class="cluster"><title>cluster_Global</title>
<path fill="none" stroke="gray" d="M20,-44C20,-44 629,-44 629,-44 635,-44 641,-50 641,-56 641,-56 641,-554 641,-554 641,-560 635,-566 629,-566 629,-566 20,-566 20,-566 14,-566 8,-560 8,-554 8,-554 8,-56 8,-56 8,-50 14,-44 20,-44"/>
<text text-anchor="middle" x="324.5" y="-553.2" font-family="Times,serif" font-size="11.00" fill="gray">Global</text>
</g>
<g id="clust2" class="cluster"><title>cluster_\rosette</title>
<path fill="none" stroke="gray" d="M28,-52C28,-52 621,-52 621,-52 627,-52 633,-58 633,-64 633,-64 633,-526 633,-526 633,-532 627,-538 621,-538 621,-538 28,-538 28,-538 22,-538 16,-532 16,-526 16,-526 16,-64 16,-64 16,-58 22,-52 28,-52"/>
<text text-anchor="middle" x="324.5" y="-525.2" font-family="Times,serif" font-size="11.00" fill="gray">rosette</text>
</g>
<g id="clust3" class="cluster"><title>cluster_\rosette\api</title>
<path fill="none" stroke="gray" d="M36,-60C36,-60 613,-60 613,-60 619,-60 625,-66 625,-72 625,-72 625,-498 625,-498 625,-504 619,-510 613,-510 613,-510 36,-510 36,-510 30,-510 24,-504 24,-498 24,-498 24,-72 24,-72 24,-66 30,-60 36,-60"/>
<text text-anchor="middle" x="324.5" y="-497.2" font-family="Times,serif" font-size="11.00" fill="gray">api</text>
</g>
<!-- \\rosette\\api\\Api -->
<g id="node1" class="node"><title>\\rosette\\api\\Api</title>
<polygon fill="none" stroke="black" points="551,-482 497,-482 497,-446 551,-446 551,-482"/>
<text text-anchor="middle" x="524" y="-461.2" font-family="Courier,monospace" font-size="11.00">Api</text>
</g>
<!-- \\rosette\\api\\RosetteRequest -->
<g id="node2" class="node"><title>\\rosette\\api\\RosetteRequest</title>
<polygon fill="none" stroke="black" points="579.5,-428 468.5,-428 468.5,-392 579.5,-392 579.5,-428"/>
<text text-anchor="middle" x="524" y="-407.2" font-family="Courier,monospace" font-size="11.00">RosetteRequest</text>
</g>
<!-- \\rosette\\api\\NameSimilarityParameters -->
<g id="node3" class="node"><title>\\rosette\\api\\NameSimilarityParameters</title>
<polygon fill="none" stroke="black" points="613.5,-320 434.5,-320 434.5,-284 613.5,-284 613.5,-320"/>
<text text-anchor="middle" x="524" y="-299.2" font-family="Courier,monospace" font-size="11.00">NameSimilarityParameters</text>
</g>
<!-- \\rosette\\api\\RosetteParamsSetBase -->
<g id="node4" class="node"><title>\\rosette\\api\\RosetteParamsSetBase</title>
<polygon fill="none" stroke="black" points="359,-239 207,-239 207,-203 359,-203 359,-239"/>
<text text-anchor="start" x="249" y="-224.2" font-family="Courier,monospace" font-size="11.00">«abstract»</text>
<text text-anchor="start" x="215" y="-212.2" font-family="Courier,monospace" font-size="11.00">RosetteParamsSetBase</text>
</g>
<!-- \\rosette\\api\\NameSimilarityParameters&#45;&gt;\\rosette\\api\\RosetteParamsSetBase -->
<g id="edge1" class="edge"><title>\\rosette\\api\\NameSimilarityParameters&#45;&gt;\\rosette\\api\\RosetteParamsSetBase</title>
<path fill="none" stroke="black" d="M459.481,-283.96C449.905,-281.066 440.168,-278.026 431,-275 400.745,-265.016 367.387,-252.857 340.106,-242.607"/>
<polygon fill="none" stroke="black" points="341.316,-239.323 330.725,-239.068 338.845,-245.872 341.316,-239.323"/>
</g>
<!-- \\rosette\\api\\RosetteException -->
<g id="node5" class="node"><title>\\rosette\\api\\RosetteException</title>
<polygon fill="none" stroke="black" points="586.5,-374 461.5,-374 461.5,-338 586.5,-338 586.5,-374"/>
<text text-anchor="middle" x="524" y="-353.2" font-family="Courier,monospace" font-size="11.00">RosetteException</text>
</g>
<!-- \\rosette\\api\\CustomException -->
<g id="node6" class="node"><title>\\rosette\\api\\CustomException</title>
<polygon fill="none" stroke="black" points="342,-347 224,-347 224,-311 342,-311 342,-347"/>
<text text-anchor="middle" x="283" y="-326.2" font-family="Courier,monospace" font-size="11.00">CustomException</text>
</g>
<!-- \\rosette\\api\\RosetteException&#45;&gt;\\rosette\\api\\CustomException -->
<g id="edge2" class="edge"><title>\\rosette\\api\\RosetteException&#45;&gt;\\rosette\\api\\CustomException</title>
<path fill="none" stroke="black" d="M461.452,-349.047C427.967,-345.264 386.472,-340.576 352.03,-336.685"/>
<polygon fill="none" stroke="black" points="352.38,-333.203 342.051,-335.558 351.595,-340.159 352.38,-333.203"/>
</g>
<!-- \\rosette\\api\\IException -->
<g id="node11" class="node"><title>\\rosette\\api\\IException</title>
<polygon fill="none" stroke="black" points="116,-347 32,-347 32,-311 116,-311 116,-347"/>
<text text-anchor="middle" x="74" y="-326.2" font-family="Courier,monospace" font-size="11.00">IException</text>
</g>
<!-- \\rosette\\api\\CustomException&#45;&gt;\\rosette\\api\\IException -->
<g id="edge4" class="edge"><title>\\rosette\\api\\CustomException&#45;&gt;\\rosette\\api\\IException</title>
<path fill="none" stroke="black" stroke-dasharray="1,5" d="M223.788,-329C193.088,-329 155.766,-329 126.182,-329"/>
<polygon fill="none" stroke="black" points="126.064,-325.5 116.064,-329 126.064,-332.5 126.064,-325.5"/>
</g>
<!-- \\Exception -->
<g id="node12" class="node"><title>\\Exception</title>
<ellipse fill="none" stroke="black" cx="74" cy="-18" rx="60.3893" ry="18"/>
<text text-anchor="middle" x="74" y="-14.3" font-family="Times,serif" font-size="14.00" fill="gray">\Exception</text>
</g>
<!-- \\rosette\\api\\CustomException&#45;&gt;\\Exception -->
<g id="edge3" class="edge"><title>\\rosette\\api\\CustomException&#45;&gt;\\Exception</title>
<path fill="none" stroke="black" d="M261.17,-310.803C244.635,-295.439 221.895,-272.139 207,-248 159.142,-170.441 192.483,-126.721 135,-56 129.634,-49.398 122.802,-43.5943 115.683,-38.6382"/>
<polygon fill="none" stroke="black" points="117.568,-35.6888 107.267,-33.2124 113.775,-41.5724 117.568,-35.6888"/>
</g>
<!-- \\rosette\\api\\NameTranslationParameters -->
<g id="node7" class="node"><title>\\rosette\\api\\NameTranslationParameters</title>
<polygon fill="none" stroke="black" points="616.5,-266 431.5,-266 431.5,-230 616.5,-230 616.5,-266"/>
<text text-anchor="middle" x="524" y="-245.2" font-family="Courier,monospace" font-size="11.00">NameTranslationParameters</text>
</g>
<!-- \\rosette\\api\\NameTranslationParameters&#45;&gt;\\rosette\\api\\RosetteParamsSetBase -->
<g id="edge5" class="edge"><title>\\rosette\\api\\NameTranslationParameters&#45;&gt;\\rosette\\api\\RosetteParamsSetBase</title>
<path fill="none" stroke="black" d="M431.28,-237.638C410.897,-235.336 389.372,-232.904 369.261,-230.632"/>
<polygon fill="none" stroke="black" points="369.531,-227.14 359.201,-229.495 368.745,-234.096 369.531,-227.14"/>
</g>
<!-- \\rosette\\api\\DocumentParameters -->
<g id="node8" class="node"><title>\\rosette\\api\\DocumentParameters</title>
<polygon fill="none" stroke="black" points="593,-212 455,-212 455,-176 593,-176 593,-212"/>
<text text-anchor="middle" x="524" y="-191.2" font-family="Courier,monospace" font-size="11.00">DocumentParameters</text>
</g>
<!-- \\rosette\\api\\DocumentParameters&#45;&gt;\\rosette\\api\\RosetteParamsSetBase -->
<g id="edge6" class="edge"><title>\\rosette\\api\\DocumentParameters&#45;&gt;\\rosette\\api\\RosetteParamsSetBase</title>
<path fill="none" stroke="black" d="M454.832,-201.701C428.29,-204.7 397.576,-208.169 369.572,-211.333"/>
<polygon fill="none" stroke="black" points="368.934,-207.883 359.39,-212.483 369.72,-214.838 368.934,-207.883"/>
</g>
<!-- \\rosette\\api\\Name -->
<g id="node9" class="node"><title>\\rosette\\api\\Name</title>
<polygon fill="none" stroke="black" points="551,-158 497,-158 497,-122 551,-122 551,-158"/>
<text text-anchor="middle" x="524" y="-137.2" font-family="Courier,monospace" font-size="11.00">Name</text>
</g>
<!-- \\rosette\\api\\Name&#45;&gt;\\rosette\\api\\RosetteParamsSetBase -->
<g id="edge7" class="edge"><title>\\rosette\\api\\Name&#45;&gt;\\rosette\\api\\RosetteParamsSetBase</title>
<path fill="none" stroke="black" d="M496.684,-147.22C478.207,-152.412 452.972,-159.749 431,-167 400.745,-176.984 367.387,-189.143 340.106,-199.393"/>
<polygon fill="none" stroke="black" points="338.845,-196.128 330.725,-202.932 341.316,-202.677 338.845,-196.128"/>
</g>
<!-- \\rosette\\api\\RosetteConstants -->
<g id="node10" class="node"><title>\\rosette\\api\\RosetteConstants</title>
<polygon fill="none" stroke="black" points="586.5,-104 461.5,-104 461.5,-68 586.5,-68 586.5,-104"/>
<text text-anchor="middle" x="524" y="-83.2" font-family="Courier,monospace" font-size="11.00">RosetteConstants</text>
</g>
</g>
</svg>
