<?xml version="1.0" encoding="UTF-8" standalone="no"?>
<!DOCTYPE svg PUBLIC "-//W3C//DTD SVG 1.1//EN"
 "http://www.w3.org/Graphics/SVG/1.1/DTD/svg11.dtd">
<!-- Generated by graphviz version 2.38.0 (20140413.2041)
 -->
<!-- Title: G Pages: 1 -->
<svg width="683pt" height="582pt"
 viewBox="0.00 0.00 683.05 582.00" xmlns="http://www.w3.org/2000/svg" xmlns:xlink="http://www.w3.org/1999/xlink">
<g id="graph0" class="graph" transform="scale(1 1) rotate(0) translate(4 578)">
<title>G</title>
<polygon fill="white" stroke="none" points="-4,4 -4,-578 679.046,-578 679.046,4 -4,4"/>
<g id="clust1" class="cluster"><title>cluster_Global</title>
<path fill="none" stroke="gray" d="M20,-44C20,-44 655.046,-44 655.046,-44 661.046,-44 667.046,-50 667.046,-56 667.046,-56 667.046,-554 667.046,-554 667.046,-560 661.046,-566 655.046,-566 655.046,-566 20,-566 20,-566 14,-566 8,-560 8,-554 8,-554 8,-56 8,-56 8,-50 14,-44 20,-44"/>
<text text-anchor="middle" x="337.523" y="-553.2" font-family="Times,serif" font-size="11.00" fill="gray">Global</text>
</g>
<g id="clust2" class="cluster"><title>cluster_\rosette</title>
<path fill="none" stroke="gray" d="M28,-52C28,-52 647.046,-52 647.046,-52 653.046,-52 659.046,-58 659.046,-64 659.046,-64 659.046,-526 659.046,-526 659.046,-532 653.046,-538 647.046,-538 647.046,-538 28,-538 28,-538 22,-538 16,-532 16,-526 16,-526 16,-64 16,-64 16,-58 22,-52 28,-52"/>
<text text-anchor="middle" x="337.523" y="-525.2" font-family="Times,serif" font-size="11.00" fill="gray">rosette</text>
</g>
<g id="clust3" class="cluster"><title>cluster_\rosette\api</title>
<path fill="none" stroke="gray" d="M36,-60C36,-60 639.046,-60 639.046,-60 645.046,-60 651.046,-66 651.046,-72 651.046,-72 651.046,-498 651.046,-498 651.046,-504 645.046,-510 639.046,-510 639.046,-510 36,-510 36,-510 30,-510 24,-504 24,-498 24,-498 24,-72 24,-72 24,-66 30,-60 36,-60"/>
<text text-anchor="middle" x="337.523" y="-497.2" font-family="Times,serif" font-size="11.00" fill="gray">api</text>
</g>
<!-- \\rosette\\api\\DocumentParameters -->
<g id="node1" class="node"><title>\\rosette\\api\\DocumentParameters</title>
<polygon fill="none" stroke="black" points="617.046,-482 465.046,-482 465.046,-446 617.046,-446 617.046,-482"/>
<text text-anchor="middle" x="541.046" y="-461.2" font-family="Courier,monospace" font-size="11.00">DocumentParameters</text>
</g>
<!-- \\rosette\\api\\RosetteParamsSetBase -->
<g id="node8" class="node"><title>\\rosette\\api\\RosetteParamsSetBase</title>
<polygon fill="none" stroke="black" points="367.046,-374 200.046,-374 200.046,-338 367.046,-338 367.046,-374"/>
<text text-anchor="start" x="245.546" y="-359.2" font-family="Courier,monospace" font-size="11.00">«abstract»</text>
<text text-anchor="start" x="208.046" y="-347.2" font-family="Courier,monospace" font-size="11.00">RosetteParamsSetBase</text>
</g>
<!-- \\rosette\\api\\DocumentParameters&#45;&gt;\\rosette\\api\\RosetteParamsSetBase -->
<g id="edge1" class="edge"><title>\\rosette\\api\\DocumentParameters&#45;&gt;\\rosette\\api\\RosetteParamsSetBase</title>
<path fill="none" stroke="black" d="M464.981,-445.93C456.145,-443.218 447.331,-440.233 439.046,-437 397.831,-420.917 353.345,-396.814 322.742,-379.081"/>
<polygon fill="none" stroke="black" points="324.501,-376.055 314.101,-374.029 320.968,-382.098 324.501,-376.055"/>
</g>
<!-- \\rosette\\api\\NameSimilarityParameters -->
<g id="node2" class="node"><title>\\rosette\\api\\NameSimilarityParameters</title>
<polygon fill="none" stroke="black" points="639.546,-428 442.546,-428 442.546,-392 639.546,-392 639.546,-428"/>
<text text-anchor="middle" x="541.046" y="-407.2" font-family="Courier,monospace" font-size="11.00">NameSimilarityParameters</text>
</g>
<!-- \\rosette\\api\\NameSimilarityParameters&#45;&gt;\\rosette\\api\\RosetteParamsSetBase -->
<g id="edge2" class="edge"><title>\\rosette\\api\\NameSimilarityParameters&#45;&gt;\\rosette\\api\\RosetteParamsSetBase</title>
<path fill="none" stroke="black" d="M454.613,-391.944C429.767,-386.693 402.514,-380.933 377.244,-375.592"/>
<polygon fill="none" stroke="black" points="377.804,-372.133 367.296,-373.489 376.357,-378.982 377.804,-372.133"/>
</g>
<!-- \\rosette\\api\\RosetteRequest -->
<g id="node3" class="node"><title>\\rosette\\api\\RosetteRequest</title>
<polygon fill="none" stroke="black" points="602.046,-374 480.046,-374 480.046,-338 602.046,-338 602.046,-374"/>
<text text-anchor="middle" x="541.046" y="-353.2" font-family="Courier,monospace" font-size="11.00">RosetteRequest</text>
</g>
<!-- \\rosette\\api\\Name -->
<g id="node4" class="node"><title>\\rosette\\api\\Name</title>
<polygon fill="none" stroke="black" points="568.046,-320 514.046,-320 514.046,-284 568.046,-284 568.046,-320"/>
<text text-anchor="middle" x="541.046" y="-299.2" font-family="Courier,monospace" font-size="11.00">Name</text>
</g>
<!-- \\rosette\\api\\Name&#45;&gt;\\rosette\\api\\RosetteParamsSetBase -->
<g id="edge3" class="edge"><title>\\rosette\\api\\Name&#45;&gt;\\rosette\\api\\RosetteParamsSetBase</title>
<path fill="none" stroke="black" d="M513.665,-307.576C481.578,-314.357 425.679,-326.171 377.129,-336.432"/>
<polygon fill="none" stroke="black" points="376.27,-333.037 367.21,-338.529 377.717,-339.885 376.27,-333.037"/>
</g>
<!-- \\rosette\\api\\CustomException -->
<g id="node5" class="node"><title>\\rosette\\api\\CustomException</title>
<polygon fill="none" stroke="black" points="348.046,-131 219.046,-131 219.046,-95 348.046,-95 348.046,-131"/>
<text text-anchor="middle" x="283.546" y="-110.2" font-family="Courier,monospace" font-size="11.00">CustomException</text>
</g>
<!-- \\rosette\\api\\IException -->
<g id="node11" class="node"><title>\\rosette\\api\\IException</title>
<polygon fill="none" stroke="black" points="124,-131 32,-131 32,-95 124,-95 124,-131"/>
<text text-anchor="middle" x="78" y="-110.2" font-family="Courier,monospace" font-size="11.00">IException</text>
</g>
<!-- \\rosette\\api\\CustomException&#45;&gt;\\rosette\\api\\IException -->
<g id="edge5" class="edge"><title>\\rosette\\api\\CustomException&#45;&gt;\\rosette\\api\\IException</title>
<path fill="none" stroke="black" stroke-dasharray="1,5" d="M218.98,-113C191.794,-113 160.353,-113 134.165,-113"/>
<polygon fill="none" stroke="black" points="134.035,-109.5 124.035,-113 134.035,-116.5 134.035,-109.5"/>
</g>
<!-- \\Exception -->
<g id="node12" class="node"><title>\\Exception</title>
<ellipse fill="none" stroke="black" cx="78" cy="-18" rx="50.0912" ry="18"/>
<text text-anchor="middle" x="78" y="-14.3" font-family="Times,serif" font-size="14.00" fill="gray">xception</text>
</g>
<!-- \\rosette\\api\\CustomException&#45;&gt;\\Exception -->
<g id="edge4" class="edge"><title>\\rosette\\api\\CustomException&#45;&gt;\\Exception</title>
<path fill="none" stroke="black" d="M243.781,-94.9076C207.887,-78.1547 154.752,-53.3556 118.595,-36.48"/>
<polygon fill="none" stroke="black" points="119.875,-33.2149 109.333,-32.1571 116.914,-39.558 119.875,-33.2149"/>
</g>
<!-- \\rosette\\api\\NameTranslationParameters -->
<g id="node6" class="node"><title>\\rosette\\api\\NameTranslationParameters</title>
<polygon fill="none" stroke="black" points="643.046,-266 439.046,-266 439.046,-230 643.046,-230 643.046,-266"/>
<text text-anchor="middle" x="541.046" y="-245.2" font-family="Courier,monospace" font-size="11.00">NameTranslationParameters</text>
</g>
<!-- \\rosette\\api\\NameTranslationParameters&#45;&gt;\\rosette\\api\\RosetteParamsSetBase -->
<g id="edge6" class="edge"><title>\\rosette\\api\\NameTranslationParameters&#45;&gt;\\rosette\\api\\RosetteParamsSetBase</title>
<path fill="none" stroke="black" d="M464.981,-266.07C456.145,-268.782 447.331,-271.767 439.046,-275 397.831,-291.083 353.345,-315.186 322.742,-332.919"/>
<polygon fill="none" stroke="black" points="320.968,-329.902 314.101,-337.971 324.501,-335.945 320.968,-329.902"/>
</g>
<!-- \\rosette\\api\\Api -->
<g id="node7" class="node"><title>\\rosette\\api\\Api</title>
<polygon fill="none" stroke="black" points="568.046,-212 514.046,-212 514.046,-176 568.046,-176 568.046,-212"/>
<text text-anchor="middle" x="541.046" y="-191.2" font-family="Courier,monospace" font-size="11.00">Api</text>
</g>
<!-- \\rosette\\api\\RosetteException -->
<g id="node9" class="node"><title>\\rosette\\api\\RosetteException</title>
<polygon fill="none" stroke="black" points="609.546,-158 472.546,-158 472.546,-122 609.546,-122 609.546,-158"/>
<text text-anchor="middle" x="541.046" y="-137.2" font-family="Courier,monospace" font-size="11.00">RosetteException</text>
</g>
<!-- \\rosette\\api\\RosetteException&#45;&gt;\\rosette\\api\\CustomException -->
<g id="edge7" class="edge"><title>\\rosette\\api\\RosetteException&#45;&gt;\\rosette\\api\\CustomException</title>
<path fill="none" stroke="black" d="M472.247,-132.835C437.263,-129.138 394.52,-124.622 358.665,-120.833"/>
<polygon fill="none" stroke="black" points="358.575,-117.304 348.262,-119.733 357.839,-124.265 358.575,-117.304"/>
</g>
<!-- \\rosette\\api\\RosetteConstants -->
<g id="node10" class="node"><title>\\rosette\\api\\RosetteConstants</title>
<polygon fill="none" stroke="black" points="609.546,-104 472.546,-104 472.546,-68 609.546,-68 609.546,-104"/>
<text text-anchor="middle" x="541.046" y="-83.2" font-family="Courier,monospace" font-size="11.00">RosetteConstants</text>
</g>
</g>
</svg>
