<?xml version="1.0" encoding="UTF-8" standalone="no"?>
<!DOCTYPE svg PUBLIC "-//W3C//DTD SVG 1.1//EN"
 "http://www.w3.org/Graphics/SVG/1.1/DTD/svg11.dtd">
<!-- Generated by graphviz version 2.40.1 (0)
 -->
<!-- Title: G Pages: 1 -->
<svg width="698pt" height="636pt"
 viewBox="0.00 0.00 698.05 636.00" xmlns="http://www.w3.org/2000/svg" xmlns:xlink="http://www.w3.org/1999/xlink">
<g id="graph0" class="graph" transform="scale(1 1) rotate(0) translate(4 632)">
<title>G</title>
<polygon fill="#ffffff" stroke="transparent" points="-4,4 -4,-632 694.0456,-632 694.0456,4 -4,4"/>
<g id="clust1" class="cluster">
<title>cluster_Global</title>
<path fill="none" stroke="#c0c0c0" d="M20,-44C20,-44 670.0456,-44 670.0456,-44 676.0456,-44 682.0456,-50 682.0456,-56 682.0456,-56 682.0456,-608 682.0456,-608 682.0456,-614 676.0456,-620 670.0456,-620 670.0456,-620 20,-620 20,-620 14,-620 8,-614 8,-608 8,-608 8,-56 8,-56 8,-50 14,-44 20,-44"/>
<text text-anchor="middle" x="345.0228" y="-607.2" font-family="Times,serif" font-size="11.00" fill="#c0c0c0">Global</text>
</g>
<g id="clust2" class="cluster">
<title>cluster_\rosette</title>
<path fill="none" stroke="#c0c0c0" d="M28,-52C28,-52 662.0456,-52 662.0456,-52 668.0456,-52 674.0456,-58 674.0456,-64 674.0456,-64 674.0456,-580 674.0456,-580 674.0456,-586 668.0456,-592 662.0456,-592 662.0456,-592 28,-592 28,-592 22,-592 16,-586 16,-580 16,-580 16,-64 16,-64 16,-58 22,-52 28,-52"/>
<text text-anchor="middle" x="345.0228" y="-579.2" font-family="Times,serif" font-size="11.00" fill="#c0c0c0">rosette</text>
</g>
<g id="clust3" class="cluster">
<title>cluster_\rosette\api</title>
<path fill="none" stroke="#c0c0c0" d="M36,-60C36,-60 654.0456,-60 654.0456,-60 660.0456,-60 666.0456,-66 666.0456,-72 666.0456,-72 666.0456,-552 666.0456,-552 666.0456,-558 660.0456,-564 654.0456,-564 654.0456,-564 36,-564 36,-564 30,-564 24,-558 24,-552 24,-552 24,-72 24,-72 24,-66 30,-60 36,-60"/>
<text text-anchor="middle" x="345.0228" y="-551.2" font-family="Times,serif" font-size="11.00" fill="#c0c0c0">api</text>
</g>
<!-- \\rosette\\api\\Api -->
<g id="node1" class="node">
<title>\\rosette\\api\\Api</title>
<polygon fill="none" stroke="#000000" points="575.5456,-536 521.5456,-536 521.5456,-500 575.5456,-500 575.5456,-536"/>
<text text-anchor="middle" x="548.5456" y="-515.2" font-family="Courier,monospace" font-size="11.00" fill="#000000">Api</text>
</g>
<!-- \\rosette\\api\\CustomException -->
<g id="node2" class="node">
<title>\\rosette\\api\\CustomException</title>
<polygon fill="none" stroke="#000000" points="348.0456,-131 219.0456,-131 219.0456,-95 348.0456,-95 348.0456,-131"/>
<text text-anchor="middle" x="283.5456" y="-110.2" font-family="Courier,monospace" font-size="11.00" fill="#000000">CustomException</text>
</g>
<!-- \\rosette\\api\\IException -->
<g id="node12" class="node">
<title>\\rosette\\api\\IException</title>
<polygon fill="none" stroke="#000000" points="124,-131 32,-131 32,-95 124,-95 124,-131"/>
<text text-anchor="middle" x="78" y="-110.2" font-family="Courier,monospace" font-size="11.00" fill="#000000">IException</text>
</g>
<!-- \\rosette\\api\\CustomException&#45;&gt;\\rosette\\api\\IException -->
<g id="edge2" class="edge">
<title>\\rosette\\api\\CustomException&#45;&gt;\\rosette\\api\\IException</title>
<path fill="none" stroke="#000000" stroke-dasharray="1,5" d="M218.7918,-113C191.6779,-113 160.4542,-113 134.3109,-113"/>
<polygon fill="none" stroke="#000000" points="134.19,-109.5001 124.19,-113 134.1899,-116.5001 134.19,-109.5001"/>
</g>
<!-- \\Exception -->
<g id="node13" class="node">
<title>\\Exception</title>
<ellipse fill="none" stroke="#000000" cx="78" cy="-18" rx="50.0912" ry="18"/>
<text text-anchor="middle" x="78" y="-14.3" font-family="Times,serif" font-size="14.00" fill="#c0c0c0">xception</text>
</g>
<!-- \\rosette\\api\\CustomException&#45;&gt;\\Exception -->
<g id="edge1" class="edge">
<title>\\rosette\\api\\CustomException&#45;&gt;\\Exception</title>
<path fill="none" stroke="#000000" d="M244.4002,-94.9076C208.2599,-78.2041 154.8131,-53.5019 118.3076,-36.6295"/>
<polygon fill="none" stroke="#000000" points="119.4971,-33.3236 108.9513,-32.3052 116.5602,-39.6778 119.4971,-33.3236"/>
</g>
<!-- \\rosette\\api\\DocumentParameters -->
<g id="node3" class="node">
<title>\\rosette\\api\\DocumentParameters</title>
<polygon fill="none" stroke="#000000" points="624.5456,-482 472.5456,-482 472.5456,-446 624.5456,-446 624.5456,-482"/>
<text text-anchor="middle" x="548.5456" y="-461.2" font-family="Courier,monospace" font-size="11.00" fill="#000000">DocumentParameters</text>
</g>
<!-- \\rosette\\api\\RosetteParamsSetBase -->
<g id="node10" class="node">
<title>\\rosette\\api\\RosetteParamsSetBase</title>
<polygon fill="none" stroke="#000000" points="367.0456,-374 200.0456,-374 200.0456,-338 367.0456,-338 367.0456,-374"/>
<text text-anchor="start" x="245.5456" y="-359.2" font-family="Courier,monospace" font-size="11.00" fill="#000000">«abstract»</text>
<text text-anchor="start" x="208.0456" y="-347.2" font-family="Courier,monospace" font-size="11.00" fill="#000000">RosetteParamsSetBase</text>
</g>
<!-- \\rosette\\api\\DocumentParameters&#45;&gt;\\rosette\\api\\RosetteParamsSetBase -->
<g id="edge3" class="edge">
<title>\\rosette\\api\\DocumentParameters&#45;&gt;\\rosette\\api\\RosetteParamsSetBase</title>
<path fill="none" stroke="#000000" d="M472.4274,-447.7281C461.1008,-444.5905 449.6699,-441.011 439.0456,-437 397.3158,-421.2456 352.4097,-396.9877 321.6361,-379.123"/>
<polygon fill="none" stroke="#000000" points="323.3499,-376.0706 312.9527,-374.0338 319.8104,-382.1098 323.3499,-376.0706"/>
</g>
<!-- \\rosette\\api\\Name -->
<g id="node4" class="node">
<title>\\rosette\\api\\Name</title>
<polygon fill="none" stroke="#000000" points="575.5456,-428 521.5456,-428 521.5456,-392 575.5456,-392 575.5456,-428"/>
<text text-anchor="middle" x="548.5456" y="-407.2" font-family="Courier,monospace" font-size="11.00" fill="#000000">Name</text>
</g>
<!-- \\rosette\\api\\Name&#45;&gt;\\rosette\\api\\RosetteParamsSetBase -->
<g id="edge4" class="edge">
<title>\\rosette\\api\\Name&#45;&gt;\\rosette\\api\\RosetteParamsSetBase</title>
<path fill="none" stroke="#000000" d="M521.184,-404.4244C487.4007,-397.5403 428.1673,-385.4701 377.2919,-375.103"/>
<polygon fill="none" stroke="#000000" points="377.7358,-371.6216 367.2383,-373.0544 376.3381,-378.4807 377.7358,-371.6216"/>
</g>
<!-- \\rosette\\api\\NameDeduplicationParameters -->
<g id="node5" class="node">
<title>\\rosette\\api\\NameDeduplicationParameters</title>
<polygon fill="none" stroke="#000000" points="658.0456,-374 439.0456,-374 439.0456,-338 658.0456,-338 658.0456,-374"/>
<text text-anchor="middle" x="548.5456" y="-353.2" font-family="Courier,monospace" font-size="11.00" fill="#000000">NameDeduplicationParameters</text>
</g>
<!-- \\rosette\\api\\NameDeduplicationParameters&#45;&gt;\\rosette\\api\\RosetteParamsSetBase -->
<g id="edge5" class="edge">
<title>\\rosette\\api\\NameDeduplicationParameters&#45;&gt;\\rosette\\api\\RosetteParamsSetBase</title>
<path fill="none" stroke="#000000" d="M438.847,-356C418.4765,-356 397.3646,-356 377.5162,-356"/>
<polygon fill="none" stroke="#000000" points="377.2625,-352.5001 367.2625,-356 377.2624,-359.5001 377.2625,-352.5001"/>
</g>
<!-- \\rosette\\api\\NameSimilarityParameters -->
<g id="node6" class="node">
<title>\\rosette\\api\\NameSimilarityParameters</title>
<polygon fill="none" stroke="#000000" points="647.0456,-320 450.0456,-320 450.0456,-284 647.0456,-284 647.0456,-320"/>
<text text-anchor="middle" x="548.5456" y="-299.2" font-family="Courier,monospace" font-size="11.00" fill="#000000">NameSimilarityParameters</text>
</g>
<!-- \\rosette\\api\\NameSimilarityParameters&#45;&gt;\\rosette\\api\\RosetteParamsSetBase -->
<g id="edge6" class="edge">
<title>\\rosette\\api\\NameSimilarityParameters&#45;&gt;\\rosette\\api\\RosetteParamsSetBase</title>
<path fill="none" stroke="#000000" d="M459.936,-320.0563C433.2686,-325.4904 403.9273,-331.4694 376.9587,-336.9649"/>
<polygon fill="none" stroke="#000000" points="376.2393,-333.5394 367.1396,-338.9658 377.6371,-340.3985 376.2393,-333.5394"/>
</g>
<!-- \\rosette\\api\\NameTranslationParameters -->
<g id="node7" class="node">
<title>\\rosette\\api\\NameTranslationParameters</title>
<polygon fill="none" stroke="#000000" points="650.5456,-266 446.5456,-266 446.5456,-230 650.5456,-230 650.5456,-266"/>
<text text-anchor="middle" x="548.5456" y="-245.2" font-family="Courier,monospace" font-size="11.00" fill="#000000">NameTranslationParameters</text>
</g>
<!-- \\rosette\\api\\NameTranslationParameters&#45;&gt;\\rosette\\api\\RosetteParamsSetBase -->
<g id="edge7" class="edge">
<title>\\rosette\\api\\NameTranslationParameters&#45;&gt;\\rosette\\api\\RosetteParamsSetBase</title>
<path fill="none" stroke="#000000" d="M466.271,-266.0193C456.9885,-268.7196 447.7465,-271.7151 439.0456,-275 397.3158,-290.7544 352.4097,-315.0123 321.6361,-332.877"/>
<polygon fill="none" stroke="#000000" points="319.8104,-329.8902 312.9527,-337.9662 323.3499,-335.9294 319.8104,-329.8902"/>
</g>
<!-- \\rosette\\api\\RosetteConstants -->
<g id="node8" class="node">
<title>\\rosette\\api\\RosetteConstants</title>
<polygon fill="none" stroke="#000000" points="617.0456,-212 480.0456,-212 480.0456,-176 617.0456,-176 617.0456,-212"/>
<text text-anchor="middle" x="548.5456" y="-191.2" font-family="Courier,monospace" font-size="11.00" fill="#000000">RosetteConstants</text>
</g>
<!-- \\rosette\\api\\RosetteException -->
<g id="node9" class="node">
<title>\\rosette\\api\\RosetteException</title>
<polygon fill="none" stroke="#000000" points="617.0456,-158 480.0456,-158 480.0456,-122 617.0456,-122 617.0456,-158"/>
<text text-anchor="middle" x="548.5456" y="-137.2" font-family="Courier,monospace" font-size="11.00" fill="#000000">RosetteException</text>
</g>
<!-- \\rosette\\api\\RosetteException&#45;&gt;\\rosette\\api\\CustomException -->
<g id="edge8" class="edge">
<title>\\rosette\\api\\RosetteException&#45;&gt;\\rosette\\api\\CustomException</title>
<path fill="none" stroke="#000000" d="M479.9568,-133.0117C442.6511,-129.2108 396.457,-124.5042 358.242,-120.6106"/>
<polygon fill="none" stroke="#000000" points="358.5037,-117.1192 348.2004,-119.5875 357.7941,-124.0832 358.5037,-117.1192"/>
</g>
<!-- \\rosette\\api\\RosetteRequest -->
<g id="node11" class="node">
<title>\\rosette\\api\\RosetteRequest</title>
<polygon fill="none" stroke="#000000" points="609.5456,-104 487.5456,-104 487.5456,-68 609.5456,-68 609.5456,-104"/>
<text text-anchor="middle" x="548.5456" y="-83.2" font-family="Courier,monospace" font-size="11.00" fill="#000000">RosetteRequest</text>
</g>
</g>
</svg>
