<?xml version="1.0" encoding="UTF-8" standalone="no"?>
<!DOCTYPE svg PUBLIC "-//W3C//DTD SVG 1.1//EN"
 "http://www.w3.org/Graphics/SVG/1.1/DTD/svg11.dtd">
<!-- Generated by graphviz version 2.38.0 (20140413.2041)
 -->
<!-- Title: G Pages: 1 -->
<svg width="646pt" height="582pt"
 viewBox="0.00 0.00 645.70 582.00" xmlns="http://www.w3.org/2000/svg" xmlns:xlink="http://www.w3.org/1999/xlink">
<g id="graph0" class="graph" transform="scale(1 1) rotate(0) translate(4 578)">
<title>G</title>
<polygon fill="white" stroke="none" points="-4,4 -4,-578 641.696,-578 641.696,4 -4,4"/>
<g id="clust1" class="cluster"><title>cluster_Global</title>
<path fill="none" stroke="gray" d="M20,-44C20,-44 617.696,-44 617.696,-44 623.696,-44 629.696,-50 629.696,-56 629.696,-56 629.696,-554 629.696,-554 629.696,-560 623.696,-566 617.696,-566 617.696,-566 20,-566 20,-566 14,-566 8,-560 8,-554 8,-554 8,-56 8,-56 8,-50 14,-44 20,-44"/>
<text text-anchor="middle" x="318.848" y="-553.2" font-family="Times,serif" font-size="11.00" fill="gray">Global</text>
</g>
<g id="clust2" class="cluster"><title>cluster_\rosette</title>
<path fill="none" stroke="gray" d="M28,-52C28,-52 609.696,-52 609.696,-52 615.696,-52 621.696,-58 621.696,-64 621.696,-64 621.696,-526 621.696,-526 621.696,-532 615.696,-538 609.696,-538 609.696,-538 28,-538 28,-538 22,-538 16,-532 16,-526 16,-526 16,-64 16,-64 16,-58 22,-52 28,-52"/>
<text text-anchor="middle" x="318.848" y="-525.2" font-family="Times,serif" font-size="11.00" fill="gray">rosette</text>
</g>
<g id="clust3" class="cluster"><title>cluster_\rosette\api</title>
<path fill="none" stroke="gray" d="M36,-60C36,-60 601.696,-60 601.696,-60 607.696,-60 613.696,-66 613.696,-72 613.696,-72 613.696,-498 613.696,-498 613.696,-504 607.696,-510 601.696,-510 601.696,-510 36,-510 36,-510 30,-510 24,-504 24,-498 24,-498 24,-72 24,-72 24,-66 30,-60 36,-60"/>
<text text-anchor="middle" x="318.848" y="-497.2" font-family="Times,serif" font-size="11.00" fill="gray">api</text>
</g>
<!-- \\rosette\\api\\DocumentParameters -->
<g id="node1" class="node"><title>\\rosette\\api\\DocumentParameters</title>
<polygon fill="none" stroke="black" points="582.196,-482 444.196,-482 444.196,-446 582.196,-446 582.196,-482"/>
<text text-anchor="middle" x="513.196" y="-461.2" font-family="Courier,monospace" font-size="11.00">DocumentParameters</text>
</g>
<!-- \\rosette\\api\\RosetteParamsSetBase -->
<g id="node6" class="node"><title>\\rosette\\api\\RosetteParamsSetBase</title>
<polygon fill="none" stroke="black" points="348.696,-293 196.696,-293 196.696,-257 348.696,-257 348.696,-293"/>
<text text-anchor="start" x="238.696" y="-278.2" font-family="Courier,monospace" font-size="11.00">«abstract»</text>
<text text-anchor="start" x="204.696" y="-266.2" font-family="Courier,monospace" font-size="11.00">RosetteParamsSetBase</text>
</g>
<!-- \\rosette\\api\\DocumentParameters&#45;&gt;\\rosette\\api\\RosetteParamsSetBase -->
<g id="edge1" class="edge"><title>\\rosette\\api\\DocumentParameters&#45;&gt;\\rosette\\api\\RosetteParamsSetBase</title>
<path fill="none" stroke="black" d="M443.907,-448.425C435.786,-445.262 427.85,-441.49 420.696,-437 363.757,-401.269 315.282,-337.504 290.785,-301.552"/>
<polygon fill="none" stroke="black" points="293.559,-299.403 285.084,-293.045 287.744,-303.301 293.559,-299.403"/>
</g>
<!-- \\rosette\\api\\Api -->
<g id="node2" class="node"><title>\\rosette\\api\\Api</title>
<polygon fill="none" stroke="black" points="540.196,-428 486.196,-428 486.196,-392 540.196,-392 540.196,-428"/>
<text text-anchor="middle" x="513.196" y="-407.2" font-family="Courier,monospace" font-size="11.00">Api</text>
</g>
<!-- \\rosette\\api\\Name -->
<g id="node3" class="node"><title>\\rosette\\api\\Name</title>
<polygon fill="none" stroke="black" points="540.196,-374 486.196,-374 486.196,-338 540.196,-338 540.196,-374"/>
<text text-anchor="middle" x="513.196" y="-353.2" font-family="Courier,monospace" font-size="11.00">Name</text>
</g>
<!-- \\rosette\\api\\Name&#45;&gt;\\rosette\\api\\RosetteParamsSetBase -->
<g id="edge2" class="edge"><title>\\rosette\\api\\Name&#45;&gt;\\rosette\\api\\RosetteParamsSetBase</title>
<path fill="none" stroke="black" d="M486.025,-348.767C467.65,-343.569 442.552,-336.231 420.696,-329 390.448,-318.993 357.09,-306.833 329.808,-296.587"/>
<polygon fill="none" stroke="black" points="331.018,-293.303 320.426,-293.05 328.548,-299.853 331.018,-293.303"/>
</g>
<!-- \\rosette\\api\\RosetteRequest -->
<g id="node4" class="node"><title>\\rosette\\api\\RosetteRequest</title>
<polygon fill="none" stroke="black" points="568.696,-320 457.696,-320 457.696,-284 568.696,-284 568.696,-320"/>
<text text-anchor="middle" x="513.196" y="-299.2" font-family="Courier,monospace" font-size="11.00">RosetteRequest</text>
</g>
<!-- \\rosette\\api\\CustomException -->
<g id="node5" class="node"><title>\\rosette\\api\\CustomException</title>
<polygon fill="none" stroke="black" points="331.696,-104 213.696,-104 213.696,-68 331.696,-68 331.696,-104"/>
<text text-anchor="middle" x="272.696" y="-83.2" font-family="Courier,monospace" font-size="11.00">CustomException</text>
</g>
<!-- \\rosette\\api\\IException -->
<g id="node11" class="node"><title>\\rosette\\api\\IException</title>
<polygon fill="none" stroke="black" points="116,-104 32,-104 32,-68 116,-68 116,-104"/>
<text text-anchor="middle" x="74" y="-83.2" font-family="Courier,monospace" font-size="11.00">IException</text>
</g>
<!-- \\rosette\\api\\CustomException&#45;&gt;\\rosette\\api\\IException -->
<g id="edge4" class="edge"><title>\\rosette\\api\\CustomException&#45;&gt;\\rosette\\api\\IException</title>
<path fill="none" stroke="black" stroke-dasharray="1,5" d="M213.479,-86C185.877,-86 153.184,-86 126.497,-86"/>
<polygon fill="none" stroke="black" points="126.213,-82.5001 116.213,-86 126.213,-89.5001 126.213,-82.5001"/>
</g>
<!-- \\Exception -->
<g id="node12" class="node"><title>\\Exception</title>
<ellipse fill="none" stroke="black" cx="74" cy="-18" rx="50.8918" ry="18"/>
<text text-anchor="middle" x="74" y="-14.3" font-family="Times,serif" font-size="14.00" fill="gray">xception</text>
</g>
<!-- \\rosette\\api\\CustomException&#45;&gt;\\Exception -->
<g id="edge3" class="edge"><title>\\rosette\\api\\CustomException&#45;&gt;\\Exception</title>
<path fill="none" stroke="black" d="M219.501,-67.9558C188.723,-57.3154 150.145,-43.9786 120.594,-33.7622"/>
<polygon fill="none" stroke="black" points="121.537,-30.3851 110.942,-30.4256 119.25,-37.0009 121.537,-30.3851"/>
</g>
<!-- \\rosette\\api\\RosetteConstants -->
<g id="node7" class="node"><title>\\rosette\\api\\RosetteConstants</title>
<polygon fill="none" stroke="black" points="575.696,-266 450.696,-266 450.696,-230 575.696,-230 575.696,-266"/>
<text text-anchor="middle" x="513.196" y="-245.2" font-family="Courier,monospace" font-size="11.00">RosetteConstants</text>
</g>
<!-- \\rosette\\api\\RosetteException -->
<g id="node8" class="node"><title>\\rosette\\api\\RosetteException</title>
<polygon fill="none" stroke="black" points="575.696,-104 450.696,-104 450.696,-68 575.696,-68 575.696,-104"/>
<text text-anchor="middle" x="513.196" y="-83.2" font-family="Courier,monospace" font-size="11.00">RosetteException</text>
</g>
<!-- \\rosette\\api\\RosetteException&#45;&gt;\\rosette\\api\\CustomException -->
<g id="edge5" class="edge"><title>\\rosette\\api\\RosetteException&#45;&gt;\\rosette\\api\\CustomException</title>
<path fill="none" stroke="black" d="M450.466,-86C417.319,-86 376.376,-86 342.243,-86"/>
<polygon fill="none" stroke="black" points="341.885,-82.5001 331.885,-86 341.885,-89.5001 341.885,-82.5001"/>
</g>
<!-- \\rosette\\api\\NameTranslationParameters -->
<g id="node9" class="node"><title>\\rosette\\api\\NameTranslationParameters</title>
<polygon fill="none" stroke="black" points="605.696,-212 420.696,-212 420.696,-176 605.696,-176 605.696,-212"/>
<text text-anchor="middle" x="513.196" y="-191.2" font-family="Courier,monospace" font-size="11.00">NameTranslationParameters</text>
</g>
<!-- \\rosette\\api\\NameTranslationParameters&#45;&gt;\\rosette\\api\\RosetteParamsSetBase -->
<g id="edge6" class="edge"><title>\\rosette\\api\\NameTranslationParameters&#45;&gt;\\rosette\\api\\RosetteParamsSetBase</title>
<path fill="none" stroke="black" d="M449.025,-212.056C439.5,-214.947 429.816,-217.983 420.696,-221 390.448,-231.007 357.09,-243.167 329.808,-253.413"/>
<polygon fill="none" stroke="black" points="328.548,-250.147 320.426,-256.95 331.018,-256.697 328.548,-250.147"/>
</g>
<!-- \\rosette\\api\\NameSimilarityParameters -->
<g id="node10" class="node"><title>\\rosette\\api\\NameSimilarityParameters</title>
<polygon fill="none" stroke="black" points="602.696,-158 423.696,-158 423.696,-122 602.696,-122 602.696,-158"/>
<text text-anchor="middle" x="513.196" y="-137.2" font-family="Courier,monospace" font-size="11.00">NameSimilarityParameters</text>
</g>
<!-- \\rosette\\api\\NameSimilarityParameters&#45;&gt;\\rosette\\api\\RosetteParamsSetBase -->
<g id="edge7" class="edge"><title>\\rosette\\api\\NameSimilarityParameters&#45;&gt;\\rosette\\api\\RosetteParamsSetBase</title>
<path fill="none" stroke="black" d="M441.792,-158.043C434.53,-160.708 427.373,-163.689 420.696,-167 375.505,-189.406 329.643,-225.738 301.439,-249.994"/>
<polygon fill="none" stroke="black" points="298.865,-247.594 293.62,-256.799 303.461,-252.874 298.865,-247.594"/>
</g>
</g>
</svg>
