<?xml version="1.0" encoding="UTF-8" standalone="no"?>
<!DOCTYPE svg PUBLIC "-//W3C//DTD SVG 1.1//EN"
 "http://www.w3.org/Graphics/SVG/1.1/DTD/svg11.dtd">
<!-- Generated by graphviz version 2.40.1 (0)
 -->
<!-- Title: G Pages: 1 -->
<svg width="698pt" height="744pt"
 viewBox="0.00 0.00 698.05 744.00" xmlns="http://www.w3.org/2000/svg" xmlns:xlink="http://www.w3.org/1999/xlink">
<g id="graph0" class="graph" transform="scale(1 1) rotate(0) translate(4 740)">
<title>G</title>
<polygon fill="#ffffff" stroke="transparent" points="-4,4 -4,-740 694.0456,-740 694.0456,4 -4,4"/>
<g id="clust1" class="cluster">
<title>cluster_Global</title>
<path fill="none" stroke="#c0c0c0" d="M20,-44C20,-44 670.0456,-44 670.0456,-44 676.0456,-44 682.0456,-50 682.0456,-56 682.0456,-56 682.0456,-716 682.0456,-716 682.0456,-722 676.0456,-728 670.0456,-728 670.0456,-728 20,-728 20,-728 14,-728 8,-722 8,-716 8,-716 8,-56 8,-56 8,-50 14,-44 20,-44"/>
<text text-anchor="middle" x="345.0228" y="-715.2" font-family="Times,serif" font-size="11.00" fill="#c0c0c0">Global</text>
</g>
<g id="clust2" class="cluster">
<title>cluster_\rosette</title>
<path fill="none" stroke="#c0c0c0" d="M28,-52C28,-52 662.0456,-52 662.0456,-52 668.0456,-52 674.0456,-58 674.0456,-64 674.0456,-64 674.0456,-688 674.0456,-688 674.0456,-694 668.0456,-700 662.0456,-700 662.0456,-700 28,-700 28,-700 22,-700 16,-694 16,-688 16,-688 16,-64 16,-64 16,-58 22,-52 28,-52"/>
<text text-anchor="middle" x="345.0228" y="-687.2" font-family="Times,serif" font-size="11.00" fill="#c0c0c0">rosette</text>
</g>
<g id="clust3" class="cluster">
<title>cluster_\rosette\api</title>
<path fill="none" stroke="#c0c0c0" d="M36,-60C36,-60 654.0456,-60 654.0456,-60 660.0456,-60 666.0456,-66 666.0456,-72 666.0456,-72 666.0456,-660 666.0456,-660 666.0456,-666 660.0456,-672 654.0456,-672 654.0456,-672 36,-672 36,-672 30,-672 24,-666 24,-660 24,-660 24,-72 24,-72 24,-66 30,-60 36,-60"/>
<text text-anchor="middle" x="345.0228" y="-659.2" font-family="Times,serif" font-size="11.00" fill="#c0c0c0">api</text>
</g>
<!-- \\rosette\\api\\Address -->
<g id="node1" class="node">
<title>\\rosette\\api\\Address</title>
<polygon fill="none" stroke="#000000" points="583.0456,-644 514.0456,-644 514.0456,-608 583.0456,-608 583.0456,-644"/>
<text text-anchor="middle" x="548.5456" y="-623.2" font-family="Courier,monospace" font-size="11.00" fill="#000000">Address</text>
</g>
<!-- \\rosette\\api\\RosetteParamsSetBase -->
<g id="node12" class="node">
<title>\\rosette\\api\\RosetteParamsSetBase</title>
<polygon fill="none" stroke="#000000" points="367.0456,-428 200.0456,-428 200.0456,-392 367.0456,-392 367.0456,-428"/>
<text text-anchor="start" x="245.5456" y="-413.2" font-family="Courier,monospace" font-size="11.00" fill="#000000">«abstract»</text>
<text text-anchor="start" x="208.0456" y="-401.2" font-family="Courier,monospace" font-size="11.00" fill="#000000">RosetteParamsSetBase</text>
</g>
<!-- \\rosette\\api\\Address&#45;&gt;\\rosette\\api\\RosetteParamsSetBase -->
<g id="edge1" class="edge">
<title>\\rosette\\api\\Address&#45;&gt;\\rosette\\api\\RosetteParamsSetBase</title>
<path fill="none" stroke="#000000" d="M513.7745,-623.1183C491.0733,-619.924 461.5778,-613.1908 439.0456,-599 373.0285,-557.4224 321.7173,-478.2593 297.978,-436.8151"/>
<polygon fill="none" stroke="#000000" points="301.024,-435.0911 293.0705,-428.0917 294.9232,-438.5233 301.024,-435.0911"/>
</g>
<!-- \\rosette\\api\\AddressSimilarityParameters -->
<g id="node2" class="node">
<title>\\rosette\\api\\AddressSimilarityParameters</title>
<polygon fill="none" stroke="#000000" points="658.0456,-590 439.0456,-590 439.0456,-554 658.0456,-554 658.0456,-590"/>
<text text-anchor="middle" x="548.5456" y="-569.2" font-family="Courier,monospace" font-size="11.00" fill="#000000">AddressSimilarityParameters</text>
</g>
<!-- \\rosette\\api\\AddressSimilarityParameters&#45;&gt;\\rosette\\api\\RosetteParamsSetBase -->
<g id="edge2" class="edge">
<title>\\rosette\\api\\AddressSimilarityParameters&#45;&gt;\\rosette\\api\\RosetteParamsSetBase</title>
<path fill="none" stroke="#000000" d="M459.6515,-553.9548C452.5221,-551.3488 445.5638,-548.3798 439.0456,-545 385.1466,-517.0526 334.3277,-466.7753 306.2215,-436.0931"/>
<polygon fill="none" stroke="#000000" points="308.5445,-433.4432 299.2448,-428.367 303.3492,-438.1346 308.5445,-433.4432"/>
</g>
<!-- \\rosette\\api\\Api -->
<g id="node3" class="node">
<title>\\rosette\\api\\Api</title>
<polygon fill="none" stroke="#000000" points="575.5456,-536 521.5456,-536 521.5456,-500 575.5456,-500 575.5456,-536"/>
<text text-anchor="middle" x="548.5456" y="-515.2" font-family="Courier,monospace" font-size="11.00" fill="#000000">Api</text>
</g>
<!-- \\rosette\\api\\CustomException -->
<g id="node4" class="node">
<title>\\rosette\\api\\CustomException</title>
<polygon fill="none" stroke="#000000" points="348.0456,-131 219.0456,-131 219.0456,-95 348.0456,-95 348.0456,-131"/>
<text text-anchor="middle" x="283.5456" y="-110.2" font-family="Courier,monospace" font-size="11.00" fill="#000000">CustomException</text>
</g>
<!-- \\rosette\\api\\IException -->
<g id="node14" class="node">
<title>\\rosette\\api\\IException</title>
<polygon fill="none" stroke="#000000" points="124,-131 32,-131 32,-95 124,-95 124,-131"/>
<text text-anchor="middle" x="78" y="-110.2" font-family="Courier,monospace" font-size="11.00" fill="#000000">IException</text>
</g>
<!-- \\rosette\\api\\CustomException&#45;&gt;\\rosette\\api\\IException -->
<g id="edge4" class="edge">
<title>\\rosette\\api\\CustomException&#45;&gt;\\rosette\\api\\IException</title>
<path fill="none" stroke="#000000" stroke-dasharray="1,5" d="M218.7918,-113C191.6779,-113 160.4542,-113 134.3109,-113"/>
<polygon fill="none" stroke="#000000" points="134.19,-109.5001 124.19,-113 134.1899,-116.5001 134.19,-109.5001"/>
</g>
<!-- \\Exception -->
<g id="node15" class="node">
<title>\\Exception</title>
<ellipse fill="none" stroke="#000000" cx="78" cy="-18" rx="50.0912" ry="18"/>
<text text-anchor="middle" x="78" y="-14.3" font-family="Times,serif" font-size="14.00" fill="#c0c0c0">xception</text>
</g>
<!-- \\rosette\\api\\CustomException&#45;&gt;\\Exception -->
<g id="edge3" class="edge">
<title>\\rosette\\api\\CustomException&#45;&gt;\\Exception</title>
<path fill="none" stroke="#000000" d="M244.4002,-94.9076C208.2599,-78.2041 154.8131,-53.5019 118.3076,-36.6295"/>
<polygon fill="none" stroke="#000000" points="119.4971,-33.3236 108.9513,-32.3052 116.5602,-39.6778 119.4971,-33.3236"/>
</g>
<!-- \\rosette\\api\\DocumentParameters -->
<g id="node5" class="node">
<title>\\rosette\\api\\DocumentParameters</title>
<polygon fill="none" stroke="#000000" points="624.5456,-482 472.5456,-482 472.5456,-446 624.5456,-446 624.5456,-482"/>
<text text-anchor="middle" x="548.5456" y="-461.2" font-family="Courier,monospace" font-size="11.00" fill="#000000">DocumentParameters</text>
</g>
<!-- \\rosette\\api\\DocumentParameters&#45;&gt;\\rosette\\api\\RosetteParamsSetBase -->
<g id="edge5" class="edge">
<title>\\rosette\\api\\DocumentParameters&#45;&gt;\\rosette\\api\\RosetteParamsSetBase</title>
<path fill="none" stroke="#000000" d="M472.2521,-448.4534C442.5884,-442.4087 408.3109,-435.4239 377.1752,-429.0793"/>
<polygon fill="none" stroke="#000000" points="377.6839,-425.6111 367.1864,-427.0438 376.2862,-432.4701 377.6839,-425.6111"/>
</g>
<!-- \\rosette\\api\\Name -->
<g id="node6" class="node">
<title>\\rosette\\api\\Name</title>
<polygon fill="none" stroke="#000000" points="575.5456,-428 521.5456,-428 521.5456,-392 575.5456,-392 575.5456,-428"/>
<text text-anchor="middle" x="548.5456" y="-407.2" font-family="Courier,monospace" font-size="11.00" fill="#000000">Name</text>
</g>
<!-- \\rosette\\api\\Name&#45;&gt;\\rosette\\api\\RosetteParamsSetBase -->
<g id="edge6" class="edge">
<title>\\rosette\\api\\Name&#45;&gt;\\rosette\\api\\RosetteParamsSetBase</title>
<path fill="none" stroke="#000000" d="M521.184,-410C487.4007,-410 428.1673,-410 377.2919,-410"/>
<polygon fill="none" stroke="#000000" points="377.2383,-406.5001 367.2383,-410 377.2383,-413.5001 377.2383,-406.5001"/>
</g>
<!-- \\rosette\\api\\NameDeduplicationParameters -->
<g id="node7" class="node">
<title>\\rosette\\api\\NameDeduplicationParameters</title>
<polygon fill="none" stroke="#000000" points="658.0456,-374 439.0456,-374 439.0456,-338 658.0456,-338 658.0456,-374"/>
<text text-anchor="middle" x="548.5456" y="-353.2" font-family="Courier,monospace" font-size="11.00" fill="#000000">NameDeduplicationParameters</text>
</g>
<!-- \\rosette\\api\\NameDeduplicationParameters&#45;&gt;\\rosette\\api\\RosetteParamsSetBase -->
<g id="edge7" class="edge">
<title>\\rosette\\api\\NameDeduplicationParameters&#45;&gt;\\rosette\\api\\RosetteParamsSetBase</title>
<path fill="none" stroke="#000000" d="M459.936,-374.0563C433.2686,-379.4904 403.9273,-385.4694 376.9587,-390.9649"/>
<polygon fill="none" stroke="#000000" points="376.2393,-387.5394 367.1396,-392.9658 377.6371,-394.3985 376.2393,-387.5394"/>
</g>
<!-- \\rosette\\api\\NameSimilarityParameters -->
<g id="node8" class="node">
<title>\\rosette\\api\\NameSimilarityParameters</title>
<polygon fill="none" stroke="#000000" points="647.0456,-320 450.0456,-320 450.0456,-284 647.0456,-284 647.0456,-320"/>
<text text-anchor="middle" x="548.5456" y="-299.2" font-family="Courier,monospace" font-size="11.00" fill="#000000">NameSimilarityParameters</text>
</g>
<!-- \\rosette\\api\\NameSimilarityParameters&#45;&gt;\\rosette\\api\\RosetteParamsSetBase -->
<g id="edge8" class="edge">
<title>\\rosette\\api\\NameSimilarityParameters&#45;&gt;\\rosette\\api\\RosetteParamsSetBase</title>
<path fill="none" stroke="#000000" d="M466.271,-320.0193C456.9885,-322.7196 447.7465,-325.7151 439.0456,-329 397.3158,-344.7544 352.4097,-369.0123 321.6361,-386.877"/>
<polygon fill="none" stroke="#000000" points="319.8104,-383.8902 312.9527,-391.9662 323.3499,-389.9294 319.8104,-383.8902"/>
</g>
<!-- \\rosette\\api\\NameTranslationParameters -->
<g id="node9" class="node">
<title>\\rosette\\api\\NameTranslationParameters</title>
<polygon fill="none" stroke="#000000" points="650.5456,-266 446.5456,-266 446.5456,-230 650.5456,-230 650.5456,-266"/>
<text text-anchor="middle" x="548.5456" y="-245.2" font-family="Courier,monospace" font-size="11.00" fill="#000000">NameTranslationParameters</text>
</g>
<!-- \\rosette\\api\\NameTranslationParameters&#45;&gt;\\rosette\\api\\RosetteParamsSetBase -->
<g id="edge9" class="edge">
<title>\\rosette\\api\\NameTranslationParameters&#45;&gt;\\rosette\\api\\RosetteParamsSetBase</title>
<path fill="none" stroke="#000000" d="M459.6515,-266.0452C452.5221,-268.6512 445.5638,-271.6202 439.0456,-275 385.1466,-302.9474 334.3277,-353.2247 306.2215,-383.9069"/>
<polygon fill="none" stroke="#000000" points="303.3492,-381.8654 299.2448,-391.633 308.5445,-386.5568 303.3492,-381.8654"/>
</g>
<!-- \\rosette\\api\\RosetteConstants -->
<g id="node10" class="node">
<title>\\rosette\\api\\RosetteConstants</title>
<polygon fill="none" stroke="#000000" points="617.0456,-212 480.0456,-212 480.0456,-176 617.0456,-176 617.0456,-212"/>
<text text-anchor="middle" x="548.5456" y="-191.2" font-family="Courier,monospace" font-size="11.00" fill="#000000">RosetteConstants</text>
</g>
<!-- \\rosette\\api\\RosetteException -->
<g id="node11" class="node">
<title>\\rosette\\api\\RosetteException</title>
<polygon fill="none" stroke="#000000" points="617.0456,-158 480.0456,-158 480.0456,-122 617.0456,-122 617.0456,-158"/>
<text text-anchor="middle" x="548.5456" y="-137.2" font-family="Courier,monospace" font-size="11.00" fill="#000000">RosetteException</text>
</g>
<!-- \\rosette\\api\\RosetteException&#45;&gt;\\rosette\\api\\CustomException -->
<g id="edge10" class="edge">
<title>\\rosette\\api\\RosetteException&#45;&gt;\\rosette\\api\\CustomException</title>
<path fill="none" stroke="#000000" d="M479.9568,-133.0117C442.6511,-129.2108 396.457,-124.5042 358.242,-120.6106"/>
<polygon fill="none" stroke="#000000" points="358.5037,-117.1192 348.2004,-119.5875 357.7941,-124.0832 358.5037,-117.1192"/>
</g>
<!-- \\rosette\\api\\RosetteRequest -->
<g id="node13" class="node">
<title>\\rosette\\api\\RosetteRequest</title>
<polygon fill="none" stroke="#000000" points="609.5456,-104 487.5456,-104 487.5456,-68 609.5456,-68 609.5456,-104"/>
<text text-anchor="middle" x="548.5456" y="-83.2" font-family="Courier,monospace" font-size="11.00" fill="#000000">RosetteRequest</text>
</g>
</g>
</svg>
