<?xml version="1.0" encoding="UTF-8" standalone="no"?>
<!DOCTYPE svg PUBLIC "-//W3C//DTD SVG 1.1//EN"
 "http://www.w3.org/Graphics/SVG/1.1/DTD/svg11.dtd">
<!-- Generated by graphviz version 2.38.0 (20140413.2041)
 -->
<!-- Title: G Pages: 1 -->
<svg width="698pt" height="636pt"
 viewBox="0.00 0.00 698.05 636.00" xmlns="http://www.w3.org/2000/svg" xmlns:xlink="http://www.w3.org/1999/xlink">
<g id="graph0" class="graph" transform="scale(1 1) rotate(0) translate(4 632)">
<title>G</title>
<polygon fill="white" stroke="none" points="-4,4 -4,-632 694.046,-632 694.046,4 -4,4"/>
<g id="clust1" class="cluster"><title>cluster_Global</title>
<path fill="none" stroke="gray" d="M20,-44C20,-44 670.046,-44 670.046,-44 676.046,-44 682.046,-50 682.046,-56 682.046,-56 682.046,-608 682.046,-608 682.046,-614 676.046,-620 670.046,-620 670.046,-620 20,-620 20,-620 14,-620 8,-614 8,-608 8,-608 8,-56 8,-56 8,-50 14,-44 20,-44"/>
<text text-anchor="middle" x="345.023" y="-607.2" font-family="Times,serif" font-size="11.00" fill="gray">Global</text>
</g>
<g id="clust2" class="cluster"><title>cluster_\rosette</title>
<path fill="none" stroke="gray" d="M28,-52C28,-52 662.046,-52 662.046,-52 668.046,-52 674.046,-58 674.046,-64 674.046,-64 674.046,-580 674.046,-580 674.046,-586 668.046,-592 662.046,-592 662.046,-592 28,-592 28,-592 22,-592 16,-586 16,-580 16,-580 16,-64 16,-64 16,-58 22,-52 28,-52"/>
<text text-anchor="middle" x="345.023" y="-579.2" font-family="Times,serif" font-size="11.00" fill="gray">rosette</text>
</g>
<g id="clust3" class="cluster"><title>cluster_\rosette\api</title>
<path fill="none" stroke="gray" d="M36,-60C36,-60 654.046,-60 654.046,-60 660.046,-60 666.046,-66 666.046,-72 666.046,-72 666.046,-552 666.046,-552 666.046,-558 660.046,-564 654.046,-564 654.046,-564 36,-564 36,-564 30,-564 24,-558 24,-552 24,-552 24,-72 24,-72 24,-66 30,-60 36,-60"/>
<text text-anchor="middle" x="345.023" y="-551.2" font-family="Times,serif" font-size="11.00" fill="gray">api</text>
</g>
<!-- \\rosette\\api\\CustomException -->
<g id="node1" class="node"><title>\\rosette\\api\\CustomException</title>
<polygon fill="none" stroke="black" points="348.046,-158 219.046,-158 219.046,-122 348.046,-122 348.046,-158"/>
<text text-anchor="middle" x="283.546" y="-137.2" font-family="Courier,monospace" font-size="11.00">CustomException</text>
</g>
<!-- \\rosette\\api\\IException -->
<g id="node12" class="node"><title>\\rosette\\api\\IException</title>
<polygon fill="none" stroke="black" points="124,-158 32,-158 32,-122 124,-122 124,-158"/>
<text text-anchor="middle" x="78" y="-137.2" font-family="Courier,monospace" font-size="11.00">IException</text>
</g>
<!-- \\rosette\\api\\CustomException&#45;&gt;\\rosette\\api\\IException -->
<g id="edge2" class="edge"><title>\\rosette\\api\\CustomException&#45;&gt;\\rosette\\api\\IException</title>
<path fill="none" stroke="black" stroke-dasharray="1,5" d="M218.98,-140C191.794,-140 160.353,-140 134.165,-140"/>
<polygon fill="none" stroke="black" points="134.035,-136.5 124.035,-140 134.035,-143.5 134.035,-136.5"/>
</g>
<!-- \\Exception -->
<g id="node13" class="node"><title>\\Exception</title>
<ellipse fill="none" stroke="black" cx="78" cy="-18" rx="50.0912" ry="18"/>
<text text-anchor="middle" x="78" y="-14.3" font-family="Times,serif" font-size="14.00" fill="gray">xception</text>
</g>
<!-- \\rosette\\api\\CustomException&#45;&gt;\\Exception -->
<g id="edge1" class="edge"><title>\\rosette\\api\\CustomException&#45;&gt;\\Exception</title>
<path fill="none" stroke="black" d="M252.512,-121.998C215.451,-99.7852 152.567,-62.0941 113.544,-38.7045"/>
<polygon fill="none" stroke="black" points="115.021,-35.5093 104.644,-33.3703 111.422,-41.5134 115.021,-35.5093"/>
</g>
<!-- \\rosette\\api\\DocumentParameters -->
<g id="node2" class="node"><title>\\rosette\\api\\DocumentParameters</title>
<polygon fill="none" stroke="black" points="624.546,-536 472.546,-536 472.546,-500 624.546,-500 624.546,-536"/>
<text text-anchor="middle" x="548.546" y="-515.2" font-family="Courier,monospace" font-size="11.00">DocumentParameters</text>
</g>
<!-- \\rosette\\api\\RosetteParamsSetBase -->
<g id="node9" class="node"><title>\\rosette\\api\\RosetteParamsSetBase</title>
<polygon fill="none" stroke="black" points="367.046,-428 200.046,-428 200.046,-392 367.046,-392 367.046,-428"/>
<text text-anchor="start" x="245.546" y="-413.2" font-family="Courier,monospace" font-size="11.00">«abstract»</text>
<text text-anchor="start" x="208.046" y="-401.2" font-family="Courier,monospace" font-size="11.00">RosetteParamsSetBase</text>
</g>
<!-- \\rosette\\api\\DocumentParameters&#45;&gt;\\rosette\\api\\RosetteParamsSetBase -->
<g id="edge3" class="edge"><title>\\rosette\\api\\DocumentParameters&#45;&gt;\\rosette\\api\\RosetteParamsSetBase</title>
<path fill="none" stroke="black" d="M472.406,-501.792C461.089,-498.638 449.66,-495.036 439.046,-491 397.564,-475.226 352.95,-450.971 322.38,-433.112"/>
<polygon fill="none" stroke="black" points="324.146,-430.09 313.755,-428.025 320.59,-436.12 324.146,-430.09"/>
</g>
<!-- \\rosette\\api\\Name -->
<g id="node3" class="node"><title>\\rosette\\api\\Name</title>
<polygon fill="none" stroke="black" points="575.546,-482 521.546,-482 521.546,-446 575.546,-446 575.546,-482"/>
<text text-anchor="middle" x="548.546" y="-461.2" font-family="Courier,monospace" font-size="11.00">Name</text>
</g>
<!-- \\rosette\\api\\Name&#45;&gt;\\rosette\\api\\RosetteParamsSetBase -->
<g id="edge4" class="edge"><title>\\rosette\\api\\Name&#45;&gt;\\rosette\\api\\RosetteParamsSetBase</title>
<path fill="none" stroke="black" d="M521.367,-458.625C487.931,-451.76 428.278,-439.512 377.209,-429.026"/>
<polygon fill="none" stroke="black" points="377.62,-425.537 367.12,-426.955 376.212,-432.394 377.62,-425.537"/>
</g>
<!-- \\rosette\\api\\NameDeduplicationParameters -->
<g id="node4" class="node"><title>\\rosette\\api\\NameDeduplicationParameters</title>
<polygon fill="none" stroke="black" points="658.046,-428 439.046,-428 439.046,-392 658.046,-392 658.046,-428"/>
<text text-anchor="middle" x="548.546" y="-407.2" font-family="Courier,monospace" font-size="11.00">NameDeduplicationParameters</text>
</g>
<!-- \\rosette\\api\\NameDeduplicationParameters&#45;&gt;\\rosette\\api\\RosetteParamsSetBase -->
<g id="edge5" class="edge"><title>\\rosette\\api\\NameDeduplicationParameters&#45;&gt;\\rosette\\api\\RosetteParamsSetBase</title>
<path fill="none" stroke="black" d="M438.675,-410C418.338,-410 397.256,-410 377.455,-410"/>
<polygon fill="none" stroke="black" points="377.228,-406.5 367.228,-410 377.228,-413.5 377.228,-406.5"/>
</g>
<!-- \\rosette\\api\\NameSimilarityParameters -->
<g id="node5" class="node"><title>\\rosette\\api\\NameSimilarityParameters</title>
<polygon fill="none" stroke="black" points="647.046,-374 450.046,-374 450.046,-338 647.046,-338 647.046,-374"/>
<text text-anchor="middle" x="548.546" y="-353.2" font-family="Courier,monospace" font-size="11.00">NameSimilarityParameters</text>
</g>
<!-- \\rosette\\api\\NameSimilarityParameters&#45;&gt;\\rosette\\api\\RosetteParamsSetBase -->
<g id="edge6" class="edge"><title>\\rosette\\api\\NameSimilarityParameters&#45;&gt;\\rosette\\api\\RosetteParamsSetBase</title>
<path fill="none" stroke="black" d="M459.605,-374.056C433.122,-379.494 403.983,-385.477 377.204,-390.975"/>
<polygon fill="none" stroke="black" points="376.159,-387.617 367.067,-393.056 377.567,-394.474 376.159,-387.617"/>
</g>
<!-- \\rosette\\api\\NameTranslationParameters -->
<g id="node6" class="node"><title>\\rosette\\api\\NameTranslationParameters</title>
<polygon fill="none" stroke="black" points="650.546,-320 446.546,-320 446.546,-284 650.546,-284 650.546,-320"/>
<text text-anchor="middle" x="548.546" y="-299.2" font-family="Courier,monospace" font-size="11.00">NameTranslationParameters</text>
</g>
<!-- \\rosette\\api\\NameTranslationParameters&#45;&gt;\\rosette\\api\\RosetteParamsSetBase -->
<g id="edge7" class="edge"><title>\\rosette\\api\\NameTranslationParameters&#45;&gt;\\rosette\\api\\RosetteParamsSetBase</title>
<path fill="none" stroke="black" d="M466.016,-320.035C456.819,-322.732 447.664,-325.723 439.046,-329 397.564,-344.774 352.95,-369.029 322.38,-386.888"/>
<polygon fill="none" stroke="black" points="320.59,-383.88 313.755,-391.975 324.146,-389.91 320.59,-383.88"/>
</g>
<!-- \\rosette\\api\\RosetteConstants -->
<g id="node7" class="node"><title>\\rosette\\api\\RosetteConstants</title>
<polygon fill="none" stroke="black" points="617.046,-266 480.046,-266 480.046,-230 617.046,-230 617.046,-266"/>
<text text-anchor="middle" x="548.546" y="-245.2" font-family="Courier,monospace" font-size="11.00">RosetteConstants</text>
</g>
<!-- \\rosette\\api\\RosetteException -->
<g id="node8" class="node"><title>\\rosette\\api\\RosetteException</title>
<polygon fill="none" stroke="black" points="617.046,-212 480.046,-212 480.046,-176 617.046,-176 617.046,-212"/>
<text text-anchor="middle" x="548.546" y="-191.2" font-family="Courier,monospace" font-size="11.00">RosetteException</text>
</g>
<!-- \\rosette\\api\\RosetteException&#45;&gt;\\rosette\\api\\CustomException -->
<g id="edge8" class="edge"><title>\\rosette\\api\\RosetteException&#45;&gt;\\rosette\\api\\CustomException</title>
<path fill="none" stroke="black" d="M479.817,-180.094C442.653,-172.463 396.523,-162.992 358.432,-155.171"/>
<polygon fill="none" stroke="black" points="358.925,-151.699 348.426,-153.116 357.517,-158.556 358.925,-151.699"/>
</g>
<!-- \\rosette\\api\\RosetteRequest -->
<g id="node10" class="node"><title>\\rosette\\api\\RosetteRequest</title>
<polygon fill="none" stroke="black" points="609.546,-158 487.546,-158 487.546,-122 609.546,-122 609.546,-158"/>
<text text-anchor="middle" x="548.546" y="-137.2" font-family="Courier,monospace" font-size="11.00">RosetteRequest</text>
</g>
<!-- \\rosette\\api\\Api -->
<g id="node11" class="node"><title>\\rosette\\api\\Api</title>
<polygon fill="none" stroke="black" points="575.546,-104 521.546,-104 521.546,-68 575.546,-68 575.546,-104"/>
<text text-anchor="middle" x="548.546" y="-83.2" font-family="Courier,monospace" font-size="11.00">Api</text>
</g>
</g>
</svg>
