<?xml version="1.0" encoding="UTF-8" standalone="no"?><svg xmlns="http://www.w3.org/2000/svg" xmlns:xlink="http://www.w3.org/1999/xlink" contentStyleType="text/css" height="815px" preserveAspectRatio="none" style="width:758px;height:815px;background:#FFFFFF;" version="1.1" viewBox="0 0 758 815" width="758px" zoomAndPan="magnify"><defs/><g><!--MD5=[cd36ff5d39f0096c21daae0607b46a46]
cluster rosette\\api--><g id="cluster_rosette\\api"><path d="M8.5,6 L95.5,6 A3.75,3.75 0 0 1 98,8.5 L105,28.2969 L748.5,28.2969 A2.5,2.5 0 0 1 751,30.7969 L751,756.5 A2.5,2.5 0 0 1 748.5,759 L8.5,759 A2.5,2.5 0 0 1 6,756.5 L6,8.5 A2.5,2.5 0 0 1 8.5,6 " fill="none" style="stroke:#000000;stroke-width:1.5;"/><line style="stroke:#000000;stroke-width:1.5;" x1="6" x2="105" y1="28.2969" y2="28.2969"/><text fill="#000000" font-family="sans-serif" font-size="14" font-weight="bold" lengthAdjust="spacing" textLength="86" x="10" y="20.9951">rosette\api</text></g><!--MD5=[b5746adaaf497b66d89f10e80347fc0d]
class rosette\\api\\Address--><g id="elem_rosette\\api\\Address"><rect codeLine="15" fill="#F1F1F1" height="32" id="rosette\\api\\Address" rx="2.5" ry="2.5" style="stroke:#181818;stroke-width:0.5;" width="89" x="352.5" y="510"/><ellipse cx="367.5" cy="526" fill="#ADD1B2" rx="11" ry="11" style="stroke:#181818;stroke-width:1.0;"/><path d="M370.4688,531.6406 Q369.8906,531.9375 369.25,532.0781 Q368.6094,532.2344 367.9063,532.2344 Q365.4063,532.2344 364.0781,530.5938 Q362.7656,528.9375 362.7656,525.8125 Q362.7656,522.6875 364.0781,521.0313 Q365.4063,519.375 367.9063,519.375 Q368.6094,519.375 369.25,519.5313 Q369.9063,519.6875 370.4688,519.9844 L370.4688,522.7031 Q369.8438,522.125 369.25,521.8594 Q368.6563,521.5781 368.0313,521.5781 Q366.6875,521.5781 366,522.6563 Q365.3125,523.7188 365.3125,525.8125 Q365.3125,527.9063 366,528.9844 Q366.6875,530.0469 368.0313,530.0469 Q368.6563,530.0469 369.25,529.7813 Q369.8438,529.5 370.4688,528.9219 L370.4688,531.6406 Z " fill="#000000"/><text fill="#000000" font-family="sans-serif" font-size="14" lengthAdjust="spacing" textLength="57" x="381.5" y="530.8467">Address</text></g><!--MD5=[0445c4952d40e380620ba99a5a99e9a3]
class rosette\\api\\RosetteParamsSetBase--><g id="elem_rosette\\api\\RosetteParamsSetBase"><rect codeLine="51" fill="#F1F1F1" height="32" id="rosette\\api\\RosetteParamsSetBase" rx="2.5" ry="2.5" style="stroke:#181818;stroke-width:0.5;" width="192" x="22" y="376"/><ellipse cx="37" cy="392" fill="#A9DCDF" rx="11" ry="11" style="stroke:#181818;stroke-width:1.0;"/><path d="M37.1094,387.3438 L35.9531,392.4219 L38.2813,392.4219 L37.1094,387.3438 Z M35.625,385.1094 L38.6094,385.1094 L41.9688,397.5 L39.5156,397.5 L38.75,394.4375 L35.4688,394.4375 L34.7188,397.5 L32.2813,397.5 L35.625,385.1094 Z " fill="#000000"/><text fill="#000000" font-family="sans-serif" font-size="14" font-style="italic" lengthAdjust="spacing" textLength="160" x="51" y="396.8467">RosetteParamsSetBase</text></g><!--MD5=[4dad2ebc8a8c054de663eb7b02689c61]
class rosette\\api\\IAddress--><g id="elem_rosette\\api\\IAddress"><rect codeLine="60" fill="#F1F1F1" height="32" id="rosette\\api\\IAddress" rx="2.5" ry="2.5" style="stroke:#181818;stroke-width:0.5;" width="92" x="72" y="577"/><ellipse cx="87" cy="593" fill="#B4A7E5" rx="11" ry="11" style="stroke:#181818;stroke-width:1.0;"/><path d="M82.9219,588.7656 L82.9219,586.6094 L90.3125,586.6094 L90.3125,588.7656 L87.8438,588.7656 L87.8438,596.8438 L90.3125,596.8438 L90.3125,599 L82.9219,599 L82.9219,596.8438 L85.3906,596.8438 L85.3906,588.7656 L82.9219,588.7656 Z " fill="#000000"/><text fill="#000000" font-family="sans-serif" font-size="14" font-style="italic" lengthAdjust="spacing" textLength="60" x="101" y="597.8467">IAddress</text></g><!--MD5=[a184212d045ce6da12296b62800e6625]
class rosette\\api\\AddressSimilarityParameters--><g id="elem_rosette\\api\\AddressSimilarityParameters"><rect codeLine="18" fill="#F1F1F1" height="32" id="rosette\\api\\AddressSimilarityParameters" rx="2.5" ry="2.5" style="stroke:#181818;stroke-width:0.5;" width="227" x="283.5" y="175"/><ellipse cx="298.5" cy="191" fill="#ADD1B2" rx="11" ry="11" style="stroke:#181818;stroke-width:1.0;"/><path d="M301.4688,196.6406 Q300.8906,196.9375 300.25,197.0781 Q299.6094,197.2344 298.9063,197.2344 Q296.4063,197.2344 295.0781,195.5938 Q293.7656,193.9375 293.7656,190.8125 Q293.7656,187.6875 295.0781,186.0313 Q296.4063,184.375 298.9063,184.375 Q299.6094,184.375 300.25,184.5313 Q300.9063,184.6875 301.4688,184.9844 L301.4688,187.7031 Q300.8438,187.125 300.25,186.8594 Q299.6563,186.5781 299.0313,186.5781 Q297.6875,186.5781 297,187.6563 Q296.3125,188.7188 296.3125,190.8125 Q296.3125,192.9063 297,193.9844 Q297.6875,195.0469 299.0313,195.0469 Q299.6563,195.0469 300.25,194.7813 Q300.8438,194.5 301.4688,193.9219 L301.4688,196.6406 Z " fill="#000000"/><text fill="#000000" font-family="sans-serif" font-size="14" lengthAdjust="spacing" textLength="195" x="312.5" y="195.8467">AddressSimilarityParameters</text></g><!--MD5=[582af8626b4bc6e274444e5e3193fd68]
class rosette\\api\\Api--><g id="elem_rosette\\api\\Api"><rect codeLine="21" fill="#F1F1F1" height="32" id="rosette\\api\\Api" rx="2.5" ry="2.5" style="stroke:#181818;stroke-width:0.5;" width="53" x="91.5" y="108"/><ellipse cx="106.5" cy="124" fill="#ADD1B2" rx="11" ry="11" style="stroke:#181818;stroke-width:1.0;"/><path d="M109.4688,129.6406 Q108.8906,129.9375 108.25,130.0781 Q107.6094,130.2344 106.9063,130.2344 Q104.4063,130.2344 103.0781,128.5938 Q101.7656,126.9375 101.7656,123.8125 Q101.7656,120.6875 103.0781,119.0313 Q104.4063,117.375 106.9063,117.375 Q107.6094,117.375 108.25,117.5313 Q108.9063,117.6875 109.4688,117.9844 L109.4688,120.7031 Q108.8438,120.125 108.25,119.8594 Q107.6563,119.5781 107.0313,119.5781 Q105.6875,119.5781 105,120.6563 Q104.3125,121.7188 104.3125,123.8125 Q104.3125,125.9063 105,126.9844 Q105.6875,128.0469 107.0313,128.0469 Q107.6563,128.0469 108.25,127.7813 Q108.8438,127.5 109.4688,126.9219 L109.4688,129.6406 Z " fill="#000000"/><text fill="#000000" font-family="sans-serif" font-size="14" lengthAdjust="spacing" textLength="21" x="120.5" y="128.8467">Api</text></g><!--MD5=[1ec581eea441af1a0c68c43bb0cb491a]
class rosette\\api\\CustomException--><g id="elem_rosette\\api\\CustomException"><rect codeLine="24" fill="#F1F1F1" height="32" id="rosette\\api\\CustomException" rx="2.5" ry="2.5" style="stroke:#181818;stroke-width:0.5;" width="154" x="320" y="711"/><ellipse cx="335" cy="727" fill="#ADD1B2" rx="11" ry="11" style="stroke:#181818;stroke-width:1.0;"/><path d="M337.9688,732.6406 Q337.3906,732.9375 336.75,733.0781 Q336.1094,733.2344 335.4063,733.2344 Q332.9063,733.2344 331.5781,731.5938 Q330.2656,729.9375 330.2656,726.8125 Q330.2656,723.6875 331.5781,722.0313 Q332.9063,720.375 335.4063,720.375 Q336.1094,720.375 336.75,720.5313 Q337.4063,720.6875 337.9688,720.9844 L337.9688,723.7031 Q337.3438,723.125 336.75,722.8594 Q336.1563,722.5781 335.5313,722.5781 Q334.1875,722.5781 333.5,723.6563 Q332.8125,724.7188 332.8125,726.8125 Q332.8125,728.9063 333.5,729.9844 Q334.1875,731.0469 335.5313,731.0469 Q336.1563,731.0469 336.75,730.7813 Q337.3438,730.5 337.9688,729.9219 L337.9688,732.6406 Z " fill="#000000"/><text fill="#000000" font-family="sans-serif" font-size="14" lengthAdjust="spacing" textLength="122" x="349" y="731.8467">CustomException</text></g><!--MD5=[448b373a0d05725fa620114c64f50813]
class rosette\\api\\IException--><g id="elem_rosette\\api\\IException"><rect codeLine="63" fill="#F1F1F1" height="32" id="rosette\\api\\IException" rx="2.5" ry="2.5" style="stroke:#181818;stroke-width:0.5;" width="105" x="65.5" y="709"/><ellipse cx="80.5" cy="725" fill="#B4A7E5" rx="11" ry="11" style="stroke:#181818;stroke-width:1.0;"/><path d="M76.4219,720.7656 L76.4219,718.6094 L83.8125,718.6094 L83.8125,720.7656 L81.3438,720.7656 L81.3438,728.8438 L83.8125,728.8438 L83.8125,731 L76.4219,731 L76.4219,728.8438 L78.8906,728.8438 L78.8906,720.7656 L76.4219,720.7656 Z " fill="#000000"/><text fill="#000000" font-family="sans-serif" font-size="14" font-style="italic" lengthAdjust="spacing" textLength="73" x="94.5" y="729.8467">IException</text></g><!--MD5=[83c482205777b5a60d7332b999db345c]
class rosette\\api\\DocumentParameters--><g id="elem_rosette\\api\\DocumentParameters"><rect codeLine="27" fill="#F1F1F1" height="32" id="rosette\\api\\DocumentParameters" rx="2.5" ry="2.5" style="stroke:#181818;stroke-width:0.5;" width="184" x="305" y="108"/><ellipse cx="320" cy="124" fill="#ADD1B2" rx="11" ry="11" style="stroke:#181818;stroke-width:1.0;"/><path d="M322.9688,129.6406 Q322.3906,129.9375 321.75,130.0781 Q321.1094,130.2344 320.4063,130.2344 Q317.9063,130.2344 316.5781,128.5938 Q315.2656,126.9375 315.2656,123.8125 Q315.2656,120.6875 316.5781,119.0313 Q317.9063,117.375 320.4063,117.375 Q321.1094,117.375 321.75,117.5313 Q322.4063,117.6875 322.9688,117.9844 L322.9688,120.7031 Q322.3438,120.125 321.75,119.8594 Q321.1563,119.5781 320.5313,119.5781 Q319.1875,119.5781 318.5,120.6563 Q317.8125,121.7188 317.8125,123.8125 Q317.8125,125.9063 318.5,126.9844 Q319.1875,128.0469 320.5313,128.0469 Q321.1563,128.0469 321.75,127.7813 Q322.3438,127.5 322.9688,126.9219 L322.9688,129.6406 Z " fill="#000000"/><text fill="#000000" font-family="sans-serif" font-size="14" lengthAdjust="spacing" textLength="152" x="334" y="128.8467">DocumentParameters</text></g><!--MD5=[348a359d1393b37536c6270eee4eb238]
class rosette\\api\\FieldedAddress--><g id="elem_rosette\\api\\FieldedAddress"><rect codeLine="30" fill="#F1F1F1" height="32" id="rosette\\api\\FieldedAddress" rx="2.5" ry="2.5" style="stroke:#181818;stroke-width:0.5;" width="139" x="327.5" y="644"/><ellipse cx="342.5" cy="660" fill="#ADD1B2" rx="11" ry="11" style="stroke:#181818;stroke-width:1.0;"/><path d="M345.4688,665.6406 Q344.8906,665.9375 344.25,666.0781 Q343.6094,666.2344 342.9063,666.2344 Q340.4063,666.2344 339.0781,664.5938 Q337.7656,662.9375 337.7656,659.8125 Q337.7656,656.6875 339.0781,655.0313 Q340.4063,653.375 342.9063,653.375 Q343.6094,653.375 344.25,653.5313 Q344.9063,653.6875 345.4688,653.9844 L345.4688,656.7031 Q344.8438,656.125 344.25,655.8594 Q343.6563,655.5781 343.0313,655.5781 Q341.6875,655.5781 341,656.6563 Q340.3125,657.7188 340.3125,659.8125 Q340.3125,661.9063 341,662.9844 Q341.6875,664.0469 343.0313,664.0469 Q343.6563,664.0469 344.25,663.7813 Q344.8438,663.5 345.4688,662.9219 L345.4688,665.6406 Z " fill="#000000"/><text fill="#000000" font-family="sans-serif" font-size="14" lengthAdjust="spacing" textLength="107" x="356.5" y="664.8467">FieldedAddress</text></g><!--MD5=[1e8410ded165f8f6e3b80ecf47e9507c]
class rosette\\api\\Name--><g id="elem_rosette\\api\\Name"><rect codeLine="33" fill="#F1F1F1" height="32" id="rosette\\api\\Name" rx="2.5" ry="2.5" style="stroke:#181818;stroke-width:0.5;" width="72" x="361" y="443"/><ellipse cx="376" cy="459" fill="#ADD1B2" rx="11" ry="11" style="stroke:#181818;stroke-width:1.0;"/><path d="M378.9688,464.6406 Q378.3906,464.9375 377.75,465.0781 Q377.1094,465.2344 376.4063,465.2344 Q373.9063,465.2344 372.5781,463.5938 Q371.2656,461.9375 371.2656,458.8125 Q371.2656,455.6875 372.5781,454.0313 Q373.9063,452.375 376.4063,452.375 Q377.1094,452.375 377.75,452.5313 Q378.4063,452.6875 378.9688,452.9844 L378.9688,455.7031 Q378.3438,455.125 377.75,454.8594 Q377.1563,454.5781 376.5313,454.5781 Q375.1875,454.5781 374.5,455.6563 Q373.8125,456.7188 373.8125,458.8125 Q373.8125,460.9063 374.5,461.9844 Q375.1875,463.0469 376.5313,463.0469 Q377.1563,463.0469 377.75,462.7813 Q378.3438,462.5 378.9688,461.9219 L378.9688,464.6406 Z " fill="#000000"/><text fill="#000000" font-family="sans-serif" font-size="14" lengthAdjust="spacing" textLength="40" x="390" y="463.8467">Name</text></g><!--MD5=[2ebb27cea0c9e4a91d1caa5c65ebfeda]
class rosette\\api\\NameDeduplicationParameters--><g id="elem_rosette\\api\\NameDeduplicationParameters"><rect codeLine="36" fill="#F1F1F1" height="32" id="rosette\\api\\NameDeduplicationParameters" rx="2.5" ry="2.5" style="stroke:#181818;stroke-width:0.5;" width="246" x="274" y="376"/><ellipse cx="289" cy="392" fill="#ADD1B2" rx="11" ry="11" style="stroke:#181818;stroke-width:1.0;"/><path d="M291.9688,397.6406 Q291.3906,397.9375 290.75,398.0781 Q290.1094,398.2344 289.4063,398.2344 Q286.9063,398.2344 285.5781,396.5938 Q284.2656,394.9375 284.2656,391.8125 Q284.2656,388.6875 285.5781,387.0313 Q286.9063,385.375 289.4063,385.375 Q290.1094,385.375 290.75,385.5313 Q291.4063,385.6875 291.9688,385.9844 L291.9688,388.7031 Q291.3438,388.125 290.75,387.8594 Q290.1563,387.5781 289.5313,387.5781 Q288.1875,387.5781 287.5,388.6563 Q286.8125,389.7188 286.8125,391.8125 Q286.8125,393.9063 287.5,394.9844 Q288.1875,396.0469 289.5313,396.0469 Q290.1563,396.0469 290.75,395.7813 Q291.3438,395.5 291.9688,394.9219 L291.9688,397.6406 Z " fill="#000000"/><text fill="#000000" font-family="sans-serif" font-size="14" lengthAdjust="spacing" textLength="214" x="303" y="396.8467">NameDeduplicationParameters</text></g><!--MD5=[99838c97c3388774da85d4d960f91e17]
class rosette\\api\\NameSimilarityParameters--><g id="elem_rosette\\api\\NameSimilarityParameters"><rect codeLine="39" fill="#F1F1F1" height="32" id="rosette\\api\\NameSimilarityParameters" rx="2.5" ry="2.5" style="stroke:#181818;stroke-width:0.5;" width="210" x="292" y="309"/><ellipse cx="307" cy="325" fill="#ADD1B2" rx="11" ry="11" style="stroke:#181818;stroke-width:1.0;"/><path d="M309.9688,330.6406 Q309.3906,330.9375 308.75,331.0781 Q308.1094,331.2344 307.4063,331.2344 Q304.9063,331.2344 303.5781,329.5938 Q302.2656,327.9375 302.2656,324.8125 Q302.2656,321.6875 303.5781,320.0313 Q304.9063,318.375 307.4063,318.375 Q308.1094,318.375 308.75,318.5313 Q309.4063,318.6875 309.9688,318.9844 L309.9688,321.7031 Q309.3438,321.125 308.75,320.8594 Q308.1563,320.5781 307.5313,320.5781 Q306.1875,320.5781 305.5,321.6563 Q304.8125,322.7188 304.8125,324.8125 Q304.8125,326.9063 305.5,327.9844 Q306.1875,329.0469 307.5313,329.0469 Q308.1563,329.0469 308.75,328.7813 Q309.3438,328.5 309.9688,327.9219 L309.9688,330.6406 Z " fill="#000000"/><text fill="#000000" font-family="sans-serif" font-size="14" lengthAdjust="spacing" textLength="178" x="321" y="329.8467">NameSimilarityParameters</text></g><!--MD5=[dcddf5c2abe9ebdcc646e1510321db0f]
class rosette\\api\\NameTranslationParameters--><g id="elem_rosette\\api\\NameTranslationParameters"><rect codeLine="42" fill="#F1F1F1" height="32" id="rosette\\api\\NameTranslationParameters" rx="2.5" ry="2.5" style="stroke:#181818;stroke-width:0.5;" width="227" x="283.5" y="242"/><ellipse cx="298.5" cy="258" fill="#ADD1B2" rx="11" ry="11" style="stroke:#181818;stroke-width:1.0;"/><path d="M301.4688,263.6406 Q300.8906,263.9375 300.25,264.0781 Q299.6094,264.2344 298.9063,264.2344 Q296.4063,264.2344 295.0781,262.5938 Q293.7656,260.9375 293.7656,257.8125 Q293.7656,254.6875 295.0781,253.0313 Q296.4063,251.375 298.9063,251.375 Q299.6094,251.375 300.25,251.5313 Q300.9063,251.6875 301.4688,251.9844 L301.4688,254.7031 Q300.8438,254.125 300.25,253.8594 Q299.6563,253.5781 299.0313,253.5781 Q297.6875,253.5781 297,254.6563 Q296.3125,255.7188 296.3125,257.8125 Q296.3125,259.9063 297,260.9844 Q297.6875,262.0469 299.0313,262.0469 Q299.6563,262.0469 300.25,261.7813 Q300.8438,261.5 301.4688,260.9219 L301.4688,263.6406 Z " fill="#000000"/><text fill="#000000" font-family="sans-serif" font-size="14" lengthAdjust="spacing" textLength="195" x="312.5" y="262.8467">NameTranslationParameters</text></g><!--MD5=[b1018316d244502b003418cd022e523b]
class rosette\\api\\RosetteConstants--><g id="elem_rosette\\api\\RosetteConstants"><rect codeLine="45" fill="#F1F1F1" height="32" id="rosette\\api\\RosetteConstants" rx="2.5" ry="2.5" style="stroke:#181818;stroke-width:0.5;" width="158" x="39" y="41"/><ellipse cx="54" cy="57" fill="#ADD1B2" rx="11" ry="11" style="stroke:#181818;stroke-width:1.0;"/><path d="M56.9688,62.6406 Q56.3906,62.9375 55.75,63.0781 Q55.1094,63.2344 54.4063,63.2344 Q51.9063,63.2344 50.5781,61.5938 Q49.2656,59.9375 49.2656,56.8125 Q49.2656,53.6875 50.5781,52.0313 Q51.9063,50.375 54.4063,50.375 Q55.1094,50.375 55.75,50.5313 Q56.4063,50.6875 56.9688,50.9844 L56.9688,53.7031 Q56.3438,53.125 55.75,52.8594 Q55.1563,52.5781 54.5313,52.5781 Q53.1875,52.5781 52.5,53.6563 Q51.8125,54.7188 51.8125,56.8125 Q51.8125,58.9063 52.5,59.9844 Q53.1875,61.0469 54.5313,61.0469 Q55.1563,61.0469 55.75,60.7813 Q56.3438,60.5 56.9688,59.9219 L56.9688,62.6406 Z " fill="#000000"/><text fill="#000000" font-family="sans-serif" font-size="14" lengthAdjust="spacing" textLength="126" x="68" y="61.8467">RosetteConstants</text></g><!--MD5=[9ded124194c731bad56d0855273d2ed8]
class rosette\\api\\RosetteException--><g id="elem_rosette\\api\\RosetteException"><rect codeLine="48" fill="#F1F1F1" height="32" id="rosette\\api\\RosetteException" rx="2.5" ry="2.5" style="stroke:#181818;stroke-width:0.5;" width="155" x="580" y="711"/><ellipse cx="595" cy="727" fill="#ADD1B2" rx="11" ry="11" style="stroke:#181818;stroke-width:1.0;"/><path d="M597.9688,732.6406 Q597.3906,732.9375 596.75,733.0781 Q596.1094,733.2344 595.4063,733.2344 Q592.9063,733.2344 591.5781,731.5938 Q590.2656,729.9375 590.2656,726.8125 Q590.2656,723.6875 591.5781,722.0313 Q592.9063,720.375 595.4063,720.375 Q596.1094,720.375 596.75,720.5313 Q597.4063,720.6875 597.9688,720.9844 L597.9688,723.7031 Q597.3438,723.125 596.75,722.8594 Q596.1563,722.5781 595.5313,722.5781 Q594.1875,722.5781 593.5,723.6563 Q592.8125,724.7188 592.8125,726.8125 Q592.8125,728.9063 593.5,729.9844 Q594.1875,731.0469 595.5313,731.0469 Q596.1563,731.0469 596.75,730.7813 Q597.3438,730.5 597.9688,729.9219 L597.9688,732.6406 Z " fill="#000000"/><text fill="#000000" font-family="sans-serif" font-size="14" lengthAdjust="spacing" textLength="123" x="609" y="731.8467">RosetteException</text></g><!--MD5=[f0e260212e7e0b4968f4c4721bc625d8]
class rosette\\api\\RosetteRequest--><g id="elem_rosette\\api\\RosetteRequest"><rect codeLine="54" fill="#F1F1F1" height="32" id="rosette\\api\\RosetteRequest" rx="2.5" ry="2.5" style="stroke:#181818;stroke-width:0.5;" width="146" x="324" y="41"/><ellipse cx="339" cy="57" fill="#ADD1B2" rx="11" ry="11" style="stroke:#181818;stroke-width:1.0;"/><path d="M341.9688,62.6406 Q341.3906,62.9375 340.75,63.0781 Q340.1094,63.2344 339.4063,63.2344 Q336.9063,63.2344 335.5781,61.5938 Q334.2656,59.9375 334.2656,56.8125 Q334.2656,53.6875 335.5781,52.0313 Q336.9063,50.375 339.4063,50.375 Q340.1094,50.375 340.75,50.5313 Q341.4063,50.6875 341.9688,50.9844 L341.9688,53.7031 Q341.3438,53.125 340.75,52.8594 Q340.1563,52.5781 339.5313,52.5781 Q338.1875,52.5781 337.5,53.6563 Q336.8125,54.7188 336.8125,56.8125 Q336.8125,58.9063 337.5,59.9844 Q338.1875,61.0469 339.5313,61.0469 Q340.1563,61.0469 340.75,60.7813 Q341.3438,60.5 341.9688,59.9219 L341.9688,62.6406 Z " fill="#000000"/><text fill="#000000" font-family="sans-serif" font-size="14" lengthAdjust="spacing" textLength="114" x="353" y="61.8467">RosetteRequest</text></g><!--MD5=[c60aa9df765613b6a6b88caeddef5517]
class rosette\\api\\UnfieldedAddress--><g id="elem_rosette\\api\\UnfieldedAddress"><rect codeLine="57" fill="#F1F1F1" height="32" id="rosette\\api\\UnfieldedAddress" rx="2.5" ry="2.5" style="stroke:#181818;stroke-width:0.5;" width="154" x="320" y="577"/><ellipse cx="335" cy="593" fill="#ADD1B2" rx="11" ry="11" style="stroke:#181818;stroke-width:1.0;"/><path d="M337.9688,598.6406 Q337.3906,598.9375 336.75,599.0781 Q336.1094,599.2344 335.4063,599.2344 Q332.9063,599.2344 331.5781,597.5938 Q330.2656,595.9375 330.2656,592.8125 Q330.2656,589.6875 331.5781,588.0313 Q332.9063,586.375 335.4063,586.375 Q336.1094,586.375 336.75,586.5313 Q337.4063,586.6875 337.9688,586.9844 L337.9688,589.7031 Q337.3438,589.125 336.75,588.8594 Q336.1563,588.5781 335.5313,588.5781 Q334.1875,588.5781 333.5,589.6563 Q332.8125,590.7188 332.8125,592.8125 Q332.8125,594.9063 333.5,595.9844 Q334.1875,597.0469 335.5313,597.0469 Q336.1563,597.0469 336.75,596.7813 Q337.3438,596.5 337.9688,595.9219 L337.9688,598.6406 Z " fill="#000000"/><text fill="#000000" font-family="sans-serif" font-size="14" lengthAdjust="spacing" textLength="122" x="349" y="597.8467">UnfieldedAddress</text></g><!--MD5=[8db60afef7a3447bbe27c5ed187fdac2]
class Exception--><g id="elem_Exception"><rect fill="#F1F1F1" height="32" id="Exception" rx="2.5" ry="2.5" style="stroke:#181818;stroke-width:0.5;" width="100" x="68" y="776"/><ellipse cx="83" cy="792" fill="#ADD1B2" rx="11" ry="11" style="stroke:#181818;stroke-width:1.0;"/><path d="M85.9688,797.6406 Q85.3906,797.9375 84.75,798.0781 Q84.1094,798.2344 83.4063,798.2344 Q80.9063,798.2344 79.5781,796.5938 Q78.2656,794.9375 78.2656,791.8125 Q78.2656,788.6875 79.5781,787.0313 Q80.9063,785.375 83.4063,785.375 Q84.1094,785.375 84.75,785.5313 Q85.4063,785.6875 85.9688,785.9844 L85.9688,788.7031 Q85.3438,788.125 84.75,787.8594 Q84.1563,787.5781 83.5313,787.5781 Q82.1875,787.5781 81.5,788.6563 Q80.8125,789.7188 80.8125,791.8125 Q80.8125,793.9063 81.5,794.9844 Q82.1875,796.0469 83.5313,796.0469 Q84.1563,796.0469 84.75,795.7813 Q85.3438,795.5 85.9688,794.9219 L85.9688,797.6406 Z " fill="#000000"/><text fill="#000000" font-family="sans-serif" font-size="14" lengthAdjust="spacing" textLength="68" x="97" y="796.8467">Exception</text></g><!--MD5=[e269eb7054a3f58b9871b6a2f801ad86]
reverse link rosette\\api\\RosetteParamsSetBase to rosette\\api\\Address--><g id="link_rosette\\api\\RosetteParamsSetBase_rosette\\api\\Address"><path d="M197,429.81 C197,429.81 197,520.67 197,520.67 C197,520.67 293.15,520.67 352.12,520.67 " fill="none" id="rosette\\api\\RosetteParamsSetBase-backto-rosette\\api\\Address" style="stroke:#516F42;stroke-width:1.0;"/><polygon fill="none" points="190,429.81,197,409.81,204,429.81,190,429.81" style="stroke:#516F42;stroke-width:1.0;"/></g><!--MD5=[27d83f7b44a9a0706c3f0d40b8e32193]
reverse link rosette\\api\\IAddress to rosette\\api\\Address--><g id="link_rosette\\api\\IAddress_rosette\\api\\Address"><path d="M118,555.28 C118,555.28 118,531.33 118,531.33 C118,531.33 273.31,531.33 352.17,531.33 " fill="none" id="rosette\\api\\IAddress-backto-rosette\\api\\Address" style="stroke:#516F42;stroke-width:1.0;stroke-dasharray:7.0,7.0;"/><polygon fill="none" points="125,555.28,118,575.28,111,555.28,125,555.28" style="stroke:#516F42;stroke-width:1.0;"/></g><!--MD5=[76e32b31f135ec226bf6abbdff61ca20]
reverse link rosette\\api\\RosetteParamsSetBase to rosette\\api\\AddressSimilarityParameters--><g id="link_rosette\\api\\RosetteParamsSetBase_rosette\\api\\AddressSimilarityParameters"><path d="M206,354.04 C206,354.04 206,191 206,191 C206,191 242.23,191 283.14,191 " fill="none" id="rosette\\api\\RosetteParamsSetBase-backto-rosette\\api\\AddressSimilarityParameters" style="stroke:#516F42;stroke-width:1.0;"/><polygon fill="none" points="213,354.04,206,374.04,199,354.04,213,354.04" style="stroke:#516F42;stroke-width:1.0;"/></g><!--MD5=[832b8190e83801801929eed7f1e62381]
reverse link Exception to rosette\\api\\CustomException--><g id="link_Exception_rosette\\api\\CustomException"><path d="M189.72,792 C189.72,792 397,792 397,792 C397,792 397,762.66 397,743.4 " fill="none" id="Exception-backto-rosette\\api\\CustomException" style="stroke:#516F42;stroke-width:1.0;"/><polygon fill="none" points="189.72,799,169.72,792,189.72,785,189.72,799" style="stroke:#516F42;stroke-width:1.0;"/></g><!--MD5=[a8eae18f21e042cd4813d535a6cf435c]
reverse link rosette\\api\\IException to rosette\\api\\CustomException--><g id="link_rosette\\api\\IException_rosette\\api\\CustomException"><path d="M192.32,726 C192.32,726 319.63,726 319.63,726 " fill="none" id="rosette\\api\\IException-backto-rosette\\api\\CustomException" style="stroke:#516F42;stroke-width:1.0;stroke-dasharray:7.0,7.0;"/><polygon fill="none" points="192.32,733,172.32,726,192.32,719,192.32,733" style="stroke:#516F42;stroke-width:1.0;"/></g><!--MD5=[774b16d7c6fff1b8d78182e5e561dfbb]
reverse link rosette\\api\\RosetteParamsSetBase to rosette\\api\\DocumentParameters--><g id="link_rosette\\api\\RosetteParamsSetBase_rosette\\api\\DocumentParameters"><path d="M203,354.06 C203,354.06 203,129.33 203,129.33 C203,129.33 254.58,129.33 304.55,129.33 " fill="none" id="rosette\\api\\RosetteParamsSetBase-backto-rosette\\api\\DocumentParameters" style="stroke:#516F42;stroke-width:1.0;"/><polygon fill="none" points="210,354.06,203,374.06,196,354.06,210,354.06" style="stroke:#516F42;stroke-width:1.0;"/></g><!--MD5=[b416ff9d8c0622910c391e344bd2ada4]
reverse link rosette\\api\\RosetteParamsSetBase to rosette\\api\\FieldedAddress--><g id="link_rosette\\api\\RosetteParamsSetBase_rosette\\api\\FieldedAddress"><path d="M180,429.94 C180,429.94 180,654.67 180,654.67 C180,654.67 263.71,654.67 327.15,654.67 " fill="none" id="rosette\\api\\RosetteParamsSetBase-backto-rosette\\api\\FieldedAddress" style="stroke:#516F42;stroke-width:1.0;"/><polygon fill="none" points="173,429.94,180,409.94,187,429.94,173,429.94" style="stroke:#516F42;stroke-width:1.0;"/></g><!--MD5=[4b697b181e5641628f4ebb8b69b07ff2]
reverse link rosette\\api\\IAddress to rosette\\api\\FieldedAddress--><g id="link_rosette\\api\\IAddress_rosette\\api\\FieldedAddress"><path d="M118,630.93 C118,630.93 118,665.33 118,665.33 C118,665.33 244.68,665.33 327.32,665.33 " fill="none" id="rosette\\api\\IAddress-backto-rosette\\api\\FieldedAddress" style="stroke:#516F42;stroke-width:1.0;stroke-dasharray:7.0,7.0;"/><polygon fill="none" points="111,630.93,118,610.93,125,630.93,111,630.93" style="stroke:#516F42;stroke-width:1.0;"/></g><!--MD5=[06ee3093b9e0c2656113225dd7db6701]
reverse link rosette\\api\\RosetteParamsSetBase to rosette\\api\\Name--><g id="link_rosette\\api\\RosetteParamsSetBase_rosette\\api\\Name"><path d="M206,429.73 C206,429.73 206,459 206,459 C206,459 305.21,459 360.62,459 " fill="none" id="rosette\\api\\RosetteParamsSetBase-backto-rosette\\api\\Name" style="stroke:#516F42;stroke-width:1.0;"/><polygon fill="none" points="199,429.73,206,409.73,213,429.73,199,429.73" style="stroke:#516F42;stroke-width:1.0;"/></g><!--MD5=[fd6b8178562d192576c6f1fc48047622]
reverse link rosette\\api\\RosetteParamsSetBase to rosette\\api\\NameDeduplicationParameters--><g id="link_rosette\\api\\RosetteParamsSetBase_rosette\\api\\NameDeduplicationParameters"><path d="M235.92,392 C235.92,392 273.52,392 273.52,392 " fill="none" id="rosette\\api\\RosetteParamsSetBase-backto-rosette\\api\\NameDeduplicationParameters" style="stroke:#516F42;stroke-width:1.0;"/><polygon fill="none" points="235.92,399,215.92,392,235.92,385,235.92,399" style="stroke:#516F42;stroke-width:1.0;"/></g><!--MD5=[80803fef245bc6b38007e59a3247e61b]
reverse link rosette\\api\\RosetteParamsSetBase to rosette\\api\\NameSimilarityParameters--><g id="link_rosette\\api\\RosetteParamsSetBase_rosette\\api\\NameSimilarityParameters"><path d="M212,354.27 C212,354.27 212,325 212,325 C212,325 249.98,325 291.53,325 " fill="none" id="rosette\\api\\RosetteParamsSetBase-backto-rosette\\api\\NameSimilarityParameters" style="stroke:#516F42;stroke-width:1.0;"/><polygon fill="none" points="219,354.27,212,374.27,205,354.27,219,354.27" style="stroke:#516F42;stroke-width:1.0;"/></g><!--MD5=[fd0cbce421ad23af505e5b689c79d341]
reverse link rosette\\api\\RosetteParamsSetBase to rosette\\api\\NameTranslationParameters--><g id="link_rosette\\api\\RosetteParamsSetBase_rosette\\api\\NameTranslationParameters"><path d="M209,354.06 C209,354.06 209,258 209,258 C209,258 243.55,258 283.03,258 " fill="none" id="rosette\\api\\RosetteParamsSetBase-backto-rosette\\api\\NameTranslationParameters" style="stroke:#516F42;stroke-width:1.0;"/><polygon fill="none" points="216,354.06,209,374.06,202,354.06,216,354.06" style="stroke:#516F42;stroke-width:1.0;"/></g><!--MD5=[1a5344860cf09d1d8a330891df28b5e2]
reverse link rosette\\api\\CustomException to rosette\\api\\RosetteException--><g id="link_rosette\\api\\CustomException_rosette\\api\\RosetteException"><path d="M495.97,727 C495.97,727 579.9,727 579.9,727 " fill="none" id="rosette\\api\\CustomException-backto-rosette\\api\\RosetteException" style="stroke:#516F42;stroke-width:1.0;"/><polygon fill="none" points="495.97,734,475.97,727,495.97,720,495.97,734" style="stroke:#516F42;stroke-width:1.0;"/></g><!--MD5=[403f6f3277d98b8b1dab70c5621188ca]
reverse link rosette\\api\\RosetteParamsSetBase to rosette\\api\\UnfieldedAddress--><g id="link_rosette\\api\\RosetteParamsSetBase_rosette\\api\\UnfieldedAddress"><path d="M188,429.86 C188,429.86 188,587.67 188,587.67 C188,587.67 260.23,587.67 319.77,587.67 " fill="none" id="rosette\\api\\RosetteParamsSetBase-backto-rosette\\api\\UnfieldedAddress" style="stroke:#516F42;stroke-width:1.0;"/><polygon fill="none" points="181,429.86,188,409.86,195,429.86,181,429.86" style="stroke:#516F42;stroke-width:1.0;"/></g><!--MD5=[13ea8e9f91cbccccacd9270df92f3fd9]
reverse link rosette\\api\\IAddress to rosette\\api\\UnfieldedAddress--><g id="link_rosette\\api\\IAddress_rosette\\api\\UnfieldedAddress"><path d="M185.9,598.33 C185.9,598.33 319.64,598.33 319.64,598.33 " fill="none" id="rosette\\api\\IAddress-backto-rosette\\api\\UnfieldedAddress" style="stroke:#516F42;stroke-width:1.0;stroke-dasharray:7.0,7.0;"/><polygon fill="none" points="185.9,605.33,165.9,598.33,185.9,591.33,185.9,605.33" style="stroke:#516F42;stroke-width:1.0;"/></g><!--MD5=[30fa625fb0b93eb90719b23f53bc3700]
@startuml
   skinparam ArrowColor #516f42
   skinparam activityBorderColor #516f42
   skinparam activityBackgroundColor #ffffff
   skinparam activityDiamondBorderColor #516f42
   skinparam activityDiamondBackgroundColor #ffffff
   skinparam shadowing false

skinparam shadowing false
skinparam linetype ortho
hide empty members
left to right direction
set namespaceSeparator \\


class \\rosette\\api\\Address extends \\rosette\\api\\RosetteParamsSetBase implements \\rosette\\api\\IAddress {
}

class \\rosette\\api\\AddressSimilarityParameters extends \\rosette\\api\\RosetteParamsSetBase {
}

class \\rosette\\api\\Api {
}

class \\rosette\\api\\CustomException extends \\Exception implements \\rosette\\api\\IException {
}

class \\rosette\\api\\DocumentParameters extends \\rosette\\api\\RosetteParamsSetBase {
}

class \\rosette\\api\\FieldedAddress extends \\rosette\\api\\RosetteParamsSetBase implements \\rosette\\api\\IAddress {
}

class \\rosette\\api\\Name extends \\rosette\\api\\RosetteParamsSetBase {
}

class \\rosette\\api\\NameDeduplicationParameters extends \\rosette\\api\\RosetteParamsSetBase {
}

class \\rosette\\api\\NameSimilarityParameters extends \\rosette\\api\\RosetteParamsSetBase {
}

class \\rosette\\api\\NameTranslationParameters extends \\rosette\\api\\RosetteParamsSetBase {
}

class \\rosette\\api\\RosetteConstants {
}

class \\rosette\\api\\RosetteException extends \\rosette\\api\\CustomException {
}

abstract class \\rosette\\api\\RosetteParamsSetBase {
}

class \\rosette\\api\\RosetteRequest {
}

class \\rosette\\api\\UnfieldedAddress extends \\rosette\\api\\RosetteParamsSetBase implements \\rosette\\api\\IAddress {
}

interface \\rosette\\api\\IAddress {
}

interface \\rosette\\api\\IException {
}

@enduml

PlantUML version 1.2022.8(Sun Sep 25 09:00:33 GMT 2022)
(GPL source distribution)
Java Runtime: OpenJDK Runtime Environment
JVM: OpenJDK 64-Bit Server VM
Default Encoding: UTF-8
Language: en
Country: US
--></g></svg>